<?xml version="1.0" encoding="UTF-8" standalone="no"?>
<!-- Created with Inkscape (http://www.inkscape.org/) -->

<svg
   xmlns:dc="http://purl.org/dc/elements/1.1/"
   xmlns:cc="http://creativecommons.org/ns#"
   xmlns:rdf="http://www.w3.org/1999/02/22-rdf-syntax-ns#"
   xmlns:svg="http://www.w3.org/2000/svg"
   xmlns="http://www.w3.org/2000/svg"
   xmlns:sodipodi="http://sodipodi.sourceforge.net/DTD/sodipodi-0.dtd"
   xmlns:inkscape="http://www.inkscape.org/namespaces/inkscape"
   width="210mm"
   height="297mm"
   viewBox="0 0 210 297"
   version="1.1"
   id="svg23203"
   inkscape:version="0.92.2 (unknown)"
   sodipodi:docname="chair.svg">
  <defs
     id="defs23197">
    <inkscape:path-effect
       effect="simplify"
       id="path-effect23295"
       is_visible="true"
       steps="1"
       threshold="0.000408163"
       smooth_angles="360"
       helper_size="0"
       simplify_individual_paths="false"
       simplify_just_coalesce="false"
       simplifyindividualpaths="false"
       simplifyJustCoalesce="false" />
    <inkscape:path-effect
       effect="simplify"
       id="path-effect23291"
       is_visible="true"
       steps="1"
       threshold="0.000408163"
       smooth_angles="360"
       helper_size="0"
       simplify_individual_paths="false"
       simplify_just_coalesce="false"
       simplifyindividualpaths="false"
       simplifyJustCoalesce="false" />
    <inkscape:path-effect
       effect="simplify"
       id="path-effect23287"
       is_visible="true"
       steps="1"
       threshold="0.000408163"
       smooth_angles="360"
       helper_size="0"
       simplify_individual_paths="false"
       simplify_just_coalesce="false"
       simplifyindividualpaths="false"
       simplifyJustCoalesce="false" />
    <inkscape:path-effect
       effect="simplify"
       id="path-effect23283"
       is_visible="true"
       steps="1"
       threshold="0.000408163"
       smooth_angles="360"
       helper_size="0"
       simplify_individual_paths="false"
       simplify_just_coalesce="false"
       simplifyindividualpaths="false"
       simplifyJustCoalesce="false" />
    <inkscape:path-effect
       effect="simplify"
       id="path-effect23279"
       is_visible="true"
       steps="1"
       threshold="0.000408163"
       smooth_angles="360"
       helper_size="0"
       simplify_individual_paths="false"
       simplify_just_coalesce="false"
       simplifyindividualpaths="false"
       simplifyJustCoalesce="false" />
    <inkscape:path-effect
       effect="simplify"
       id="path-effect23275"
       is_visible="true"
       steps="1"
       threshold="0.000408163"
       smooth_angles="360"
       helper_size="0"
       simplify_individual_paths="false"
       simplify_just_coalesce="false"
       simplifyindividualpaths="false"
       simplifyJustCoalesce="false" />
    <inkscape:path-effect
       effect="simplify"
       id="path-effect23271"
       is_visible="true"
       steps="1"
       threshold="0.000408163"
       smooth_angles="360"
       helper_size="0"
       simplify_individual_paths="false"
       simplify_just_coalesce="false"
       simplifyindividualpaths="false"
       simplifyJustCoalesce="false" />
    <inkscape:path-effect
       effect="simplify"
       id="path-effect23267"
       is_visible="true"
       steps="1"
       threshold="0.000408163"
       smooth_angles="360"
       helper_size="0"
       simplify_individual_paths="false"
       simplify_just_coalesce="false"
       simplifyindividualpaths="false"
       simplifyJustCoalesce="false" />
    <inkscape:path-effect
       effect="simplify"
       id="path-effect23263"
       is_visible="true"
       steps="1"
       threshold="0.000408163"
       smooth_angles="360"
       helper_size="0"
       simplify_individual_paths="false"
       simplify_just_coalesce="false"
       simplifyindividualpaths="false"
       simplifyJustCoalesce="false" />
    <inkscape:path-effect
       effect="simplify"
       id="path-effect23259"
       is_visible="true"
       steps="1"
       threshold="0.000408163"
       smooth_angles="360"
       helper_size="0"
       simplify_individual_paths="false"
       simplify_just_coalesce="false"
       simplifyindividualpaths="false"
       simplifyJustCoalesce="false" />
    <inkscape:path-effect
       effect="simplify"
       id="path-effect23255"
       is_visible="true"
       steps="1"
       threshold="0.000408163"
       smooth_angles="360"
       helper_size="0"
       simplify_individual_paths="false"
       simplify_just_coalesce="false"
       simplifyindividualpaths="false"
       simplifyJustCoalesce="false" />
    <inkscape:path-effect
       effect="simplify"
       id="path-effect23251"
       is_visible="true"
       steps="1"
       threshold="0.000408163"
       smooth_angles="360"
       helper_size="0"
       simplify_individual_paths="false"
       simplify_just_coalesce="false"
       simplifyindividualpaths="false"
       simplifyJustCoalesce="false" />
    <inkscape:path-effect
       effect="simplify"
       id="path-effect23247"
       is_visible="true"
       steps="1"
       threshold="0.000408163"
       smooth_angles="360"
       helper_size="0"
       simplify_individual_paths="false"
       simplify_just_coalesce="false"
       simplifyindividualpaths="false"
       simplifyJustCoalesce="false" />
    <inkscape:path-effect
       effect="simplify"
       id="path-effect23239"
       is_visible="true"
       steps="1"
       threshold="0.000408163"
       smooth_angles="360"
       helper_size="0"
       simplify_individual_paths="false"
       simplify_just_coalesce="false"
       simplifyindividualpaths="false"
       simplifyJustCoalesce="false" />
    <inkscape:path-effect
       effect="simplify"
       id="path-effect23235"
       is_visible="true"
       steps="1"
       threshold="0.000408163"
       smooth_angles="360"
       helper_size="0"
       simplify_individual_paths="false"
       simplify_just_coalesce="false"
       simplifyindividualpaths="false"
       simplifyJustCoalesce="false" />
    <inkscape:path-effect
       effect="simplify"
       id="path-effect23231"
       is_visible="true"
       steps="1"
       threshold="0.000408163"
       smooth_angles="360"
       helper_size="0"
       simplify_individual_paths="false"
       simplify_just_coalesce="false"
       simplifyindividualpaths="false"
       simplifyJustCoalesce="false" />
    <inkscape:path-effect
       effect="simplify"
       id="path-effect23227"
       is_visible="true"
       steps="1"
       threshold="0.000408163"
       smooth_angles="360"
       helper_size="0"
       simplify_individual_paths="false"
       simplify_just_coalesce="false"
       simplifyindividualpaths="false"
       simplifyJustCoalesce="false" />
    <inkscape:path-effect
       effect="simplify"
       id="path-effect23223"
       is_visible="true"
       steps="1"
       threshold="0.000408163"
       smooth_angles="360"
       helper_size="0"
       simplify_individual_paths="false"
       simplify_just_coalesce="false"
       simplifyindividualpaths="false"
       simplifyJustCoalesce="false" />
    <inkscape:path-effect
       effect="simplify"
       id="path-effect23219"
       is_visible="true"
       steps="1"
       threshold="0.000408163"
       smooth_angles="360"
       helper_size="0"
       simplify_individual_paths="false"
       simplify_just_coalesce="false"
       simplifyindividualpaths="false"
       simplifyJustCoalesce="false" />
    <inkscape:path-effect
       effect="simplify"
       id="path-effect23215"
       is_visible="true"
       steps="1"
       threshold="0.000408163"
       smooth_angles="360"
       helper_size="0"
       simplify_individual_paths="false"
       simplify_just_coalesce="false"
       simplifyindividualpaths="false"
       simplifyJustCoalesce="false" />
    <inkscape:path-effect
       effect="simplify"
       id="path-effect23211"
       is_visible="true"
       steps="1"
       threshold="0.000408163"
       smooth_angles="360"
       helper_size="0"
       simplify_individual_paths="false"
       simplify_just_coalesce="false"
       simplifyindividualpaths="false"
       simplifyJustCoalesce="false" />
    <inkscape:path-effect
       effect="simplify"
       id="path-effect23207"
       is_visible="true"
       steps="1"
       threshold="0.000408163"
       smooth_angles="360"
       helper_size="0"
       simplify_individual_paths="false"
       simplify_just_coalesce="false"
       simplifyindividualpaths="false"
       simplifyJustCoalesce="false" />
  </defs>
  <sodipodi:namedview
     id="base"
     pagecolor="#ffffff"
     bordercolor="#666666"
     borderopacity="1.0"
     inkscape:pageopacity="0.0"
     inkscape:pageshadow="2"
     inkscape:zoom="0.35"
     inkscape:cx="628.57143"
     inkscape:cy="589.6"
     inkscape:document-units="mm"
     inkscape:current-layer="layer1"
     showgrid="false"
     inkscape:window-width="1301"
     inkscape:window-height="744"
     inkscape:window-x="1985"
     inkscape:window-y="300"
     inkscape:window-maximized="1" />
  <metadata
     id="metadata23200">
    <rdf:RDF>
      <cc:Work
         rdf:about="">
        <dc:format>image/svg+xml</dc:format>
        <dc:type
           rdf:resource="http://purl.org/dc/dcmitype/StillImage" />
        <dc:title></dc:title>
      </cc:Work>
    </rdf:RDF>
  </metadata>
  <g
     inkscape:label="Layer 1"
     inkscape:groupmode="layer"
     id="layer1">
    <path
       style="fill:#000000;stroke:#000000;stroke-width:0.26458332px;stroke-linecap:butt;stroke-linejoin:miter;stroke-opacity:1"
       d="m 47.624999,62.654761 c 0.213419,-0.03993 0.364134,0.158476 0.436856,0.33264 0.189507,0.453857 0.237017,0.951704 0.271033,1.437223 0.10493,1.497686 -0.06212,2.999938 0.001,4.497606 0.0075,0.17853 -0.03387,0.374628 0.04703,0.536104 0.262364,0.523626 0.598218,1.051996 1.128846,1.336169 0.443458,0.23749 0.935893,0.361211 1.380793,0.599165 0.526182,0.281427 0.966818,0.693234 1.363297,1.13363 0.345385,0.383642 0.701236,0.757594 1.075969,1.11311 0.71195,0.67544 1.43326,1.345258 2.055095,2.10859 0.546146,0.67042 1.073398,1.375959 1.379229,2.193684 0.262411,0.70163 0.467205,1.422712 0.699899,2.134473 0.243479,0.744751 0.326782,1.555434 0.744254,2.232367 0.2924,0.474128 0.547664,0.983977 0.935045,1.386845 0.106078,0.110319 0.25069,0.294391 0.414527,0.219784 0.143297,-0.06525 0.267965,-0.19443 0.439015,-0.178756 0.289842,0.02656 0.536365,0.209442 0.748469,0.392848 0.212139,0.183437 0.442814,0.356601 0.604798,0.586731 0.315793,0.448645 0.355533,1.033701 0.710044,1.464138 0.479663,0.582392 1.170672,0.965146 1.573426,1.616198 0.497879,0.804822 0.605787,1.791918 1.157451,2.569542 0.156535,0.220651 0.365279,0.402198 0.618015,0.509611 0.374018,0.158958 0.841848,0.182275 1.114685,0.504489 0.11333,0.13384 0.03774,0.323585 -0.02417,0.45886 -0.07037,0.153748 0.007,0.301309 0.144058,0.398288 0.424341,0.300327 1.034776,0.259555 1.392023,0.654755 0.118874,0.131503 0.05132,0.323396 -0.0025,0.464702 -0.06271,0.164526 0.01625,0.32223 0.09921,0.466257 0.169142,0.293633 0.447022,0.516287 0.768766,0.623362 0.363053,0.120822 0.743082,0.211752 1.064367,0.431708 0.249734,0.170971 0.4684,0.394111 0.589519,0.679049 0.162077,0.381295 0.206204,0.838942 0.523356,1.133086 0.439813,0.407906 1.093303,0.416549 1.558968,0.788685 0.578404,0.462231 0.939603,1.158175 1.576696,1.54947 0.486255,0.298652 1.087151,0.38684 1.517539,0.782939 0.82594,0.760137 1.624293,1.549907 2.413551,2.347787 0.634013,0.64094 1.361933,1.20623 1.88139,1.94338 0.09,0.12772 0.215762,0.21814 0.328789,0.32408 0.544609,0.51045 0.85896,1.21097 1.063017,1.91822 0.284854,0.98729 0.416751,2.02293 0.86066,2.9626 0.152134,0.32204 0.39221,0.5909 0.659242,0.82333 0.410354,0.35718 0.873278,0.68029 1.14099,1.17094 0.240605,0.44097 0.330688,0.96952 0.668561,1.35062 0.235968,0.26616 0.564137,0.44286 0.743474,0.7634 0.253867,0.45375 0.304456,1.02326 0.687303,1.39901 0.401868,0.39442 0.996772,0.45005 1.466188,0.72941 1.043047,0.62073 2.078475,1.27385 2.968471,2.1072 0.867485,0.81227 1.653926,1.70378 2.473989,2.56285 0.462118,0.4841 0.822861,1.10831 1.426728,1.41641 0.242155,0.12355 0.507619,-0.0123 0.76085,-0.0123 0.243718,0 0.487435,0 0.731153,0"
       id="path23245"
       inkscape:connector-curvature="0"
       inkscape:path-effect="#path-effect23247"
       inkscape:original-d="m 47.624999,62.654761 c 1.225926,-0.203829 0.53552,6.362706 0.755952,6.803573 0.925822,1.851639 1.652752,1.239562 3.023809,2.267855 0.570177,0.427632 1.007938,1.007938 1.511906,1.511905 0.755952,0.755952 1.583449,1.44657 2.267857,2.267858 1.628262,1.953913 1.510216,2.262785 2.267858,4.535715 0.251984,0.755952 0.34598,1.584568 0.755952,2.267855 2.03908,3.39847 0.772641,0.01669 3.023809,2.267857 0.398423,0.398423 0.41788,1.061144 0.755951,1.511906 0.427633,0.570175 1.084276,0.941729 1.511906,1.511903 0.676146,0.901528 0.71506,2.226967 1.511906,3.023812 0.39842,0.39842 1.113481,0.357529 1.511903,0.755952 0.178181,0.178178 -0.178178,0.577773 0,0.755951 0.398423,0.398423 1.113483,0.357532 1.511906,0.755952 0.178179,0.178181 -0.112691,0.530572 0,0.755954 0.578901,1.157798 1.347118,0.591167 2.267858,1.511904 0.39842,0.398422 0.357528,1.113483 0.755951,1.511905 0.398423,0.398421 1.061141,0.417881 1.511904,0.755952 0.570177,0.42763 0.941731,1.084273 1.511905,1.511906 0.450763,0.338071 1.061141,0.41788 1.511906,0.755951 0.415314,0.311483 4.283274,4.157053 4.535713,4.535713 1.691534,1.34459 1.280511,3.64609 2.267857,5.29167 0.366691,0.61115 1.084273,0.94173 1.511906,1.5119 0.338071,0.45076 0.443405,1.04309 0.755952,1.51191 0.197672,0.29651 0.558278,0.45944 0.755951,0.75595 0.31255,0.46882 0.357532,1.11348 0.755954,1.51191 0.398421,0.39842 1.028745,0.46605 1.511904,0.75595 0.779068,0.46744 1.558406,0.94434 2.267857,1.5119 1.113081,0.89047 2.015874,2.01587 3.023809,3.02381 0.503968,0.50397 0.918888,1.11656 1.511906,1.51191 0.209664,0.13977 0.503968,0 0.755952,0 0.251984,0 0.503968,0 0.755951,0" />
    <path
       style="fill:#000000;stroke:#000000;stroke-width:0.26458332px;stroke-linecap:butt;stroke-linejoin:miter;stroke-opacity:1"
       d="m 96.00595,52.071428 c -0.503968,1.25992 -0.553248,2.819364 -1.511903,3.779761 -0.480308,0.481181 -1.081982,0.850007 -1.458573,1.427343 -0.202018,0.309706 -0.319357,0.664955 -0.429709,1.014784 -0.416821,1.321373 -0.712148,2.676157 -1.03836,4.021519 -0.06713,0.276857 -0.164061,0.546042 -0.297037,0.798666 -0.20793,0.39502 -0.44826,0.773476 -0.610816,1.192165 -0.58999,1.519615 -0.903162,3.135417 -1.555286,4.631591 -0.611684,1.403393 -1.580295,2.63169 -2.091817,4.079594 -0.05184,0.14674 -0.111101,0.294884 -0.09054,0.457107 0.02352,0.185505 0.09966,0.390299 -0.01187,0.56351 -0.178058,0.27653 -0.575006,0.345509 -0.706164,0.651831 -0.09142,0.213507 -0.09332,0.452282 -0.0923,0.680609 0.0039,0.876265 0.14735,1.746729 0.13405,2.623241 -0.0037,0.241411 -0.03483,0.484767 -0.134221,0.708569 -0.205855,0.463527 -0.609303,0.844045 -0.691849,1.352946 -0.05263,0.324497 -0.05126,0.655002 -0.05407,0.982841 -0.01023,1.190484 0.057,2.380249 0.05713,3.570536 3.01e-4,2.777377 -0.04456,5.555127 4.52e-4,8.332135 0.0077,0.472233 0.12881,0.948897 0.01357,1.419613 -0.05949,0.24298 -0.284951,0.382518 -0.47363,0.520575 -0.109789,0.08033 -0.159137,0.289816 -0.296343,0.280349 -0.241331,-0.01665 -0.525078,0.02119 -0.675484,0.231506 -0.167744,0.234565 -0.156503,0.541057 -0.136498,0.815228 0.02509,0.343926 0.09765,0.683104 0.1,1.029357 0.0012,0.172024 -0.112503,0.313552 -0.239968,0.418791 -0.189222,0.156227 -0.45964,0.254813 -0.548322,0.497919 -0.150614,0.412882 -0.05226,0.85652 -0.02333,1.281157 0.02054,0.301395 0.0117,0.603739 0.0117,0.905649 0,2.30521 0,4.61042 0,6.91563"
       id="path23249"
       inkscape:connector-curvature="0"
       inkscape:path-effect="#path-effect23251"
       inkscape:original-d="m 96.00595,52.071428 c -0.503967,1.259919 -1.007935,2.519841 -1.511903,3.779761 -0.503968,0.50397 -1.145214,0.900755 -1.511906,1.511906 -0.54601,0.910018 -1.264793,4.550328 -1.511903,5.291666 -0.178181,0.534538 -0.546693,0.988751 -0.755954,1.511906 -0.591881,1.479701 -0.920023,3.056012 -1.511903,4.535713 -0.619501,1.548751 -1.740766,2.954432 -2.267858,4.535714 -0.07968,0.239054 0.112691,0.530572 0,0.755952 -0.159369,0.318738 -0.643263,0.41788 -0.755952,0.755954 -0.232896,0.698683 0.235048,3.074615 0,3.779761 -0.178181,0.534538 -0.619296,0.965274 -0.755954,1.511906 -0.132411,0.529648 0,4.261998 0,4.535712 0,2.267858 0,4.535715 0,6.803573 0,0.503968 0,1.007935 0,1.511903 0,0.50397 0.159369,1.033799 0,1.511906 -0.112688,0.338071 -0.558279,0.459444 -0.755951,0.755952 -1.432097,-0.08609 -0.503968,1.763889 -0.755952,2.267857 -0.159369,0.318738 -0.643263,0.41788 -0.755954,0.755952 -0.159367,0.478107 0,1.007938 0,1.511905 0,0.503973 0,1.007933 0,1.511903 0,2.01587 0,4.03175 0,6.04762" />
    <path
       style="fill:#000000;stroke:#000000;stroke-width:0.26458332px;stroke-linecap:butt;stroke-linejoin:miter;stroke-opacity:1"
       d="m 58.208333,49.047619 c -2.13e-4,5.299565 0.105688,10.600198 -3.2e-4,15.898699 -0.0046,0.229167 -0.108311,0.468325 -0.01825,0.689389 0.10172,0.249686 0.339933,0.398122 0.543699,0.556296 0.130646,0.101414 0.227661,0.236123 0.318247,0.373661 0.339295,0.51516 0.68635,1.025377 1.016564,1.546505 0.01717,0.0271 0.10132,0.168093 0.01848,0.103858 -0.126628,-0.09819 -0.235303,-0.23885 -0.39457,-0.278338 -0.117775,-0.0292 -0.123535,0.121008 -0.113594,0.200878 0.02942,0.236391 0.09865,0.46727 0.187254,0.687504 0.199503,0.495884 0.600998,0.90171 0.721611,1.426042 0.06127,0.266338 0.02923,0.542277 0.004,0.811195 -0.03542,0.378245 -0.0997,0.756292 -0.08031,1.137429 0.008,0.15668 0.06018,0.312598 0.172405,0.428621 0.189415,0.19582 0.496219,0.279357 0.615673,0.533657 0.09701,0.206527 0.111307,0.44165 0.101813,0.666292 -0.01384,0.327452 -0.05352,0.652319 -0.07084,0.980201 -0.01163,0.220144 -0.10466,0.452976 -0.01249,0.664407 0.113207,0.259698 0.368003,0.407161 0.578493,0.578431 0.229461,0.186707 0.343275,0.469246 0.444545,0.73822 0.129443,0.343801 0.232017,0.720998 0.503264,0.983243 0.08784,0.08492 0.22024,0.04365 0.323916,0.01644 0.121254,-0.03182 0.252646,-0.102582 0.376448,-0.05334 0.104812,0.04169 0.118411,0.170073 0.125792,0.266674 0.02669,0.349351 -0.0094,0.699597 -0.03516,1.047904 -0.03542,0.478194 -0.09558,0.956781 -0.07872,1.436871 0.0061,0.172435 0.03128,0.354569 0.148685,0.491734 0.189653,0.221568 0.363439,0.504559 0.650942,0.573478 0.265762,0.06371 0.547176,0.154539 0.73356,0.366383 0.156086,0.177407 0.167181,0.429255 0.133817,0.653129 -0.04989,0.334738 -0.189469,0.656261 -0.176091,0.999557 0.0069,0.176963 0.100978,0.337875 0.234171,0.453833 0.186681,0.162525 0.454875,0.255348 0.561139,0.490207 0.10925,0.241458 0.07059,0.515008 0.03275,0.768199 -0.04107,0.274826 -0.10857,0.571039 0.0041,0.835478 0.09786,0.229724 0.324996,0.357848 0.518024,0.496858 0.120159,0.08653 0.21195,0.203301 0.291617,0.3275 0.291813,0.45493 0.576177,0.931367 0.703871,1.457545 0.05702,0.234958 -0.180201,0.542986 -0.01313,0.710835 0.247258,0.248411 0.575645,0.424605 0.748349,0.741108 0.08217,0.150586 0.02278,0.324592 -0.01,0.479659 -0.02475,0.117104 -0.01855,0.244262 0.05061,0.348653 0.185959,0.280687 0.551595,0.38444 0.715278,0.683642 0.08233,0.150496 0.02207,0.324418 -0.0099,0.479609 -0.02291,0.111077 -0.01673,0.228873 0.03876,0.332818 0.127584,0.238975 0.275369,0.485079 0.508887,0.635554 0.153237,0.09874 0.344096,0.07986 0.514346,0.03009 0.09691,-0.02833 0.202235,-0.109729 0.299154,-0.06253 0.09959,0.0485 0.119943,0.171469 0.135121,0.269916 0.03043,0.197369 0.03204,0.397933 0.03324,0.597189"
       id="path23253"
       inkscape:connector-curvature="0"
       inkscape:path-effect="#path-effect23255"
       inkscape:original-d="m 58.208333,49.047619 c 0,4.535715 0,9.071427 0,13.607142 0,0.755952 0,1.511906 0,2.267858 0,0.251984 -0.112692,0.530571 0,0.755951 0.159369,0.318739 0.558278,0.459444 0.755951,0.755952 2.545951,3.818924 0.0058,0.01752 0.755954,2.267858 0.178179,0.53454 0.577771,0.977365 0.755952,1.511905 0.173323,0.519967 -0.223015,1.821829 0,2.267858 0.159369,0.318735 0.64326,0.41788 0.755952,0.755951 0.159369,0.478108 0,1.007936 0,1.511906 0,0.251984 -0.112692,0.530569 0,0.755952 0.159369,0.318738 0.558281,0.459444 0.755951,0.755952 0.31255,0.468823 0.357532,1.113483 0.755955,1.511905 0.178178,0.178179 0.57777,-0.178181 0.755951,0 0.24919,0.24919 -0.182348,2.476765 0,3.02381 0.112692,0.338071 0.558279,0.459443 0.755952,0.755951 1.665488,0.380693 0.399595,1.555139 0.755954,2.267858 0.159367,0.318738 0.64326,0.41788 0.755952,0.755951 0.159369,0.478108 -0.159369,1.033799 0,1.511906 0.112691,0.338072 0.558278,0.459444 0.755951,0.755952 0.312547,0.468823 0.577774,0.977365 0.755952,1.511906 0.07968,0.239051 0,0.503967 0,0.755951 0.251986,0.251984 0.596585,0.437214 0.755954,0.755952 0.112689,0.225383 -0.112691,0.530572 0,0.755954 0.159369,0.318736 0.596583,0.437214 0.755952,0.755952 0.112691,0.22538 -0.112692,0.530571 0,0.755951 0.9051,1.8102 1.511906,-0.476395 1.511906,1.511906" />
    <path
       style="fill:#000000;stroke:#000000;stroke-width:0.26458332px;stroke-linecap:butt;stroke-linejoin:miter;stroke-opacity:1"
       d="m 124.73214,60.386904 c 0.13476,0.0672 0.16685,0.235419 0.18582,0.370267 0.0704,0.500403 0.0338,1.008303 0.001,1.510107 -0.0733,1.123326 -0.23367,2.241758 -0.24598,3.368248 -0.004,0.345804 0.0194,0.694324 0.12442,1.028162 0.18248,0.580285 0.519,1.098892 0.91853,1.554516 1.07261,1.22319 2.42922,2.154956 3.47588,3.40851 0.42628,0.510544 0.55818,1.182406 0.91014,1.738312 0.49548,0.782582 1.1172,1.48334 1.523,2.324218 0.35572,0.737097 0.58489,1.530401 0.7102,2.338238 0.1314,0.847119 0.21543,1.70364 0.4265,2.53642 0.15318,0.604363 0.33157,1.207462 0.62241,1.762816 0.41983,0.801662 0.96312,1.547043 1.23042,2.422637 0.42081,1.37844 0.46878,2.835011 0.85638,4.222161 0.26028,0.931503 0.58164,1.858227 0.6395,2.832234 0.0562,0.945697 -0.0389,1.890599 -0.0389,2.836684 -1.7e-4,10.260706 0.23406,20.524086 -2.6e-4,30.782106 -0.009,0.40276 -0.19837,0.78838 -0.14662,1.19466 0.0306,0.24045 0.24513,0.42649 0.48504,0.44666 0.39842,0.0335 0.77752,-0.1504 1.17374,-0.15315"
       id="path23257"
       inkscape:connector-curvature="0"
       inkscape:path-effect="#path-effect23259"
       inkscape:original-d="m 124.73214,60.386904 c 0.62669,0.236204 -0.29403,4.871482 0,6.047618 0.13666,0.546632 0.40397,1.071922 0.75595,1.511906 1.11308,1.391348 2.71069,2.354323 3.77977,3.779761 0.33807,0.450762 0.46605,1.028747 0.75595,1.511905 0.46744,0.779069 1.10559,1.455233 1.5119,2.267858 1.13148,2.262955 0.64932,3.459869 1.51191,6.047618 0.35636,1.069078 1.15554,1.954731 1.5119,3.023809 0.40632,1.218938 0.47723,2.525488 0.75595,3.779764 0.22539,1.014216 0.62709,1.992873 0.75596,3.023809 0.12502,1.000151 0,2.015873 0,3.023809 0,1.259919 0,2.519841 0,3.779761 0,2.771828 0,5.543648 0,8.315478 0,5.79563 0,11.59127 0,17.3869 0,0.50397 0,1.00794 0,1.51191 0,0.50397 -0.35636,1.15554 0,1.5119 0.35636,0.35636 1.00793,0 1.5119,0" />
    <path
       style="fill:#000000;stroke:#000000;stroke-width:0.26458332px;stroke-linecap:butt;stroke-linejoin:miter;stroke-opacity:1"
       d="m 96.005948,52.071428 c 0.758467,2.023961 1.828592,3.956412 2.275276,6.072159 0.07132,0.337793 0.06479,0.686231 0.06515,1.029799 9.55e-4,0.916689 -0.07244,1.831975 -0.07256,2.748395 -4.26e-4,3.283934 0.07072,6.568657 -6.4e-4,9.851806 -0.0095,0.43743 -0.190701,0.882701 -0.05802,1.312991 0.118857,0.38546 0.446321,0.651576 0.755578,0.886104 0.341431,0.258927 0.704701,0.525357 0.894034,0.925011 0.3027,0.638954 0.21587,1.412914 0.60595,2.011288 0.33448,0.513082 0.78049,0.941522 1.23619,1.345831 0.7143,0.633741 1.4759,1.234493 2.03274,2.021706 0.81707,1.155114 1.27738,2.527517 2.16607,3.636691 0.9099,1.135641 2.05688,2.04263 3.08456,3.06468 1.31684,1.309628 2.71491,2.54388 3.92058,3.959968 1.02833,1.207801 1.91122,2.531317 2.97137,3.71433 1.07866,1.203666 2.24283,2.330758 3.48909,3.360465 1.08831,0.8992 2.19962,1.770528 3.3274,2.619328 1.01584,0.76455 2.08235,1.46363 3.04015,2.30401 0.65052,0.57077 1.36075,1.09005 1.90903,1.76094 0.0777,0.0951 0.29116,0.20339 0.21516,0.30363 -0.0568,0.075 -0.304,-0.15628 -0.11481,-0.0893 0.41215,0.1459 0.79813,0.35665 1.18236,0.56273 1.22729,0.65825 2.45712,1.31641 3.63431,2.06034 0.21049,0.13302 0.53416,0.17989 0.62379,0.41323 0.0446,0.11614 -0.27374,0.005 -0.22324,0.15058 0.0573,0.16492 0.19709,0.28499 0.32243,0.39919 0.43533,0.39664 0.89002,0.77558 1.37915,1.1027 0.4348,0.29078 0.93952,0.44711 1.40439,0.67974"
       id="path23261"
       inkscape:connector-curvature="0"
       inkscape:path-effect="#path-effect23263"
       inkscape:original-d="m 96.005948,52.071428 c 0.755954,2.015874 1.587037,4.005149 2.26786,6.047618 0.163264,0.489794 0,3.160866 0,3.779764 0,2.771825 0,5.54365 0,8.315475 0,0.503968 0,1.007936 0,1.511904 0,0.50397 -0.22538,1.061143 0,1.511905 0.318738,0.637474 1.145214,0.900753 1.511906,1.511906 0.409976,0.683287 0.292796,1.619438 0.755956,2.267855 0.82851,1.159928 2.14867,1.89864 3.0238,3.023812 0.90207,1.159798 1.36579,2.61996 2.26786,3.779761 0.87514,1.125172 2.01588,2.015873 3.02381,3.023809 1.25992,1.259922 2.5878,2.455362 3.77976,3.779763 1.07937,1.199293 1.95187,2.573827 3.02381,3.779761 2.38878,2.687367 3.92096,3.805589 6.80357,6.047619 0.99452,0.77352 2.06721,1.44791 3.02381,2.26786 5.541,4.74942 -1.2986,0.0139 5.29167,3.77976 5.17983,2.9599 -0.19372,0.0437 3.77976,3.02381 0.45077,0.33807 1.00794,0.50397 1.51191,0.75595" />
    <path
       style="fill:#000000;stroke:#000000;stroke-width:0.26458332px;stroke-linecap:butt;stroke-linejoin:miter;stroke-opacity:1"
       d="m 167.82143,73.238094 c -0.73389,-0.0036 -1.44192,-0.26364 -2.1773,-0.247074 -0.34003,0.0077 -0.68233,0.109935 -0.95197,0.324073 -0.35084,0.278625 -0.5488,0.696955 -0.69698,1.109635 -0.20997,0.584763 -0.31036,1.221834 -0.6528,1.74778 -0.36032,0.553403 -0.74128,1.093618 -1.14017,1.619882 -0.65158,0.859632 -1.34438,1.693341 -2.13008,2.43353 -1.18954,1.120641 -2.63105,1.929813 -3.82023,3.051863 -1.20564,1.137578 -2.21087,2.478178 -3.50074,3.528174 -0.88861,0.723359 -1.93079,1.214646 -2.92879,1.763256 -0.50138,0.275614 -0.98125,0.588319 -1.44575,0.922082 -0.96571,0.693902 -1.88779,1.445308 -2.83851,2.159399 -0.70201,0.527282 -1.41308,1.042274 -2.12578,1.554897 -0.30962,0.2227 -0.58886,0.483545 -0.85666,0.754273 -0.92146,0.931549 -1.83445,1.871864 -2.77603,2.783065 -0.48762,0.47189 -1.07202,0.861885 -1.44036,1.441593 -0.0845,0.132974 -0.0297,0.295839 0.005,0.435225 0.0295,0.119984 0.0354,0.250464 -0.0277,0.365274 -0.16982,0.309179 -0.41332,0.628746 -0.75467,0.720613 -0.15439,0.04155 -0.30735,-0.03619 -0.45625,-0.06875 -0.0815,-0.01783 -0.22798,-0.0876 -0.25627,0.0046 -0.0657,0.214166 -0.0762,0.44743 -0.10449,0.67091 -0.41893,3.30699 -0.43568,6.64615 -0.67299,9.96736"
       id="path23265"
       inkscape:connector-curvature="0"
       inkscape:path-effect="#path-effect23267"
       inkscape:original-d="m 167.82143,73.238094 c -1.00794,0 -2.18516,-0.559101 -3.02381,0 -0.93765,0.625097 -0.88681,2.086166 -1.51191,3.02381 -0.895,1.342501 -1.8829,2.638856 -3.02381,3.779763 -1.1409,1.140904 -2.58046,1.944444 -3.77976,3.023809 -1.3244,1.191959 -2.38841,2.666683 -3.77976,3.779761 -1.14734,0.917868 -2.55722,1.452832 -3.77976,2.267857 -1.04832,0.698879 -2.01587,1.511906 -3.02381,2.267858 -3.59399,2.695487 -2.13291,1.376958 -4.53572,3.779761 -0.50397,0.503967 -1.00793,1.007938 -1.5119,1.511905 -0.50397,0.503968 -1.11656,0.918888 -1.51191,1.511904 -0.13977,0.209663 0.11269,0.530571 0,0.755954 -0.15937,0.318735 -0.43721,0.596582 -0.75595,0.755951 -0.22538,0.112692 -0.72032,-0.249451 -0.75595,0 -0.50017,3.501223 -0.50397,7.055563 -0.75595,10.583343" />
    <path
       style="fill:#6c5353;stroke:#000000;stroke-width:0.26458332px;stroke-linecap:butt;stroke-linejoin:miter;stroke-opacity:1"
       d="m 31.75,123.13095 c 0.610206,-1.15656 0.64726,-2.51048 0.497549,-3.7842 -0.208395,-1.77299 -0.759427,-3.52434 -0.608697,-5.326 0.131862,-1.57613 1.013269,-2.93712 1.577631,-4.37807 0.346309,-0.88421 0.515751,-1.82634 0.952248,-2.68255 0.391291,-0.76754 0.895873,-1.46859 1.486158,-2.10328 0.63571,-0.68353 0.903349,-1.60197 1.23718,-2.45333 0.329711,-0.84085 0.454085,-1.73889 0.568988,-2.629095 0.114142,-0.884301 0.341811,-1.758971 0.782775,-2.546707 0.419756,-0.74985 1.026103,-1.458115 1.117924,-2.332823 0.09823,-0.935755 -0.293589,-1.931691 0.115306,-2.818042 0.156214,-0.338621 0.41704,-0.716774 0.798001,-0.779341 0.474697,-0.07796 0.991636,0.319327 1.421529,0.02894 0.34102,-0.230356 0.529282,-0.608197 0.827537,-0.889917 0.415268,-0.392247 0.851056,-0.799282 1.04941,-1.348371 0.114189,-0.316101 0.303147,-0.626789 0.30286,-0.967746 -3.29e-4,-0.390869 -0.272559,-0.785111 -0.109667,-1.166916 0.16813,-0.394082 0.699608,0.189146 0.834458,-0.108263 0.243209,-0.536392 -0.167775,-1.112013 0.04699,-1.66248 0.224169,-0.574579 0.736358,-1.033865 0.757923,-1.686031 0.01712,-0.517809 -0.04718,-1.032565 -0.04896,-1.551453 -0.0041,-1.201811 0.04977,-2.405212 -0.0065,-3.605561 -0.02227,-0.47478 -0.260972,-1.056758 0.06675,-1.437536 0.249314,-0.289674 0.697106,-0.41366 0.74892,-0.867877 0.05929,-0.519783 -0.05208,-1.035507 -0.05318,-1.557486 -0.0031,-1.45266 0.27016,-2.931867 -0.0046,-4.358113 -0.06118,-0.317558 -0.1078,-0.722089 0.227874,-0.908841 0.327075,-0.181968 0.589411,-0.470558 0.599936,-0.874544 0.01165,-0.44734 0.0345,-0.906656 -0.08308,-1.337568 -0.08162,-0.299128 0.0016,-0.597758 0.194857,-0.84579 0.59606,-0.765076 1.726353,-1.061168 2.088847,-1.98529 0.117091,-0.298505 -0.154102,-0.626095 0.115285,-0.916763 0.240175,-0.259148 0.891122,-0.494445 0.643208,-0.886395 -0.196293,-0.310338 0.03492,-0.630814 0.409891,-0.475454 0.31443,0.130277 0.570654,-0.164502 0.844852,-0.271062 0.293195,-0.113942 0.02329,-0.222144 0.07274,-0.608454 0.03223,-0.251755 0.461338,-0.298753 0.691296,-0.356086 0.410122,-0.102252 0.811974,-0.27877 1.235297,-0.29649 0.481248,-0.02014 1.029474,0.256166 1.452802,-0.05908 0.322652,-0.240271 0.485085,-0.613262 0.863105,-0.814001 0.429705,-0.228185 0.833388,-0.665596 1.322915,-0.62614 0.318005,0.02563 0.708886,0.153109 0.912555,-0.204998 0.1824,-0.32071 0.469019,-0.596844 0.895302,-0.549823 0.345092,0.03806 0.738229,0.288376 1.053628,0.0741 0.322812,-0.219316 0.217736,-0.661336 0.12098,-0.967295 -0.1006,-0.318114 -0.05431,-0.648526 0.03565,-0.964418 0.252781,-0.887642 0.623083,-1.734015 0.890432,-2.618691 0.347787,-1.150849 0.657801,-2.376843 1.463616,-3.302768 0.171368,-0.196911 0.530278,-0.263461 0.583584,-0.519278 0.0772,-0.370498 0.268854,-0.823655 0.696936,-0.877129 0.520323,-0.065 1.04342,0.368512 1.537179,0.136711 0.695042,-0.326296 0.818533,-1.437324 1.579048,-1.539466 0.661681,-0.08887 1.3342,-0.05581 1.999791,-0.03402 0.988698,0.03236 1.977497,0.04511 2.966804,0.04604 2.436056,0.0023 4.874771,-0.108449 7.308203,0.0035 0.796374,0.03665 1.598581,0.100125 2.391212,-0.07492 1.95627,-0.43203 3.803739,-1.273135 5.781397,-1.61247 1.310708,-0.224897 2.665493,-0.364411 3.87315,-0.979025 0.892154,-0.454045 1.739332,-0.998905 2.698992,-1.320558 1.312409,-0.439886 2.864269,-0.438638 3.941096,-1.308233 0.470889,-0.380268 0.153369,-1.405686 0.755952,-1.511904 0.4449,-0.07842 0.904183,-0.0147 1.354145,-0.0065 0.555647,0.01018 1.128547,0.141469 1.669667,0.0065 1.14442,-0.285536 1.95448,-1.412704 3.12101,-1.534571 0.94831,-0.09907 1.90526,-0.0613 2.85657,-0.03588 1.17374,0.03136 2.34733,0.05863 3.5217,0.05854 12.50387,-9.1e-4 25.01448,0.408659 37.51162,-0.0014 0.87801,-0.02881 1.77017,-0.115097 2.63582,0.111486 1.42287,0.372432 2.68798,1.271012 4.16611,1.420637 0.85411,0.08646 1.76531,-0.274776 2.57403,0.13209 0.49097,0.247007 0.95285,0.543663 1.44192,0.797503 1.1813,0.613121 2.35689,1.255762 3.64687,1.634682 0.47877,0.140634 1.02686,0.195388 1.40487,0.52934 0.58695,0.518546 1.02572,1.179697 1.44365,1.834942 0.39351,0.616966 0.80669,1.228373 1.06844,1.917237 0.18221,0.479542 0.5074,0.883289 0.90415,1.212941 0.39743,0.33022 0.94215,0.630286 1.04117,1.168614 0.0889,0.483461 -0.30629,1.0243 1.3e-4,1.453605 0.22053,0.308968 0.78962,0.417991 0.74758,0.863925 -0.0281,0.297957 -0.0499,0.595098 -0.0499,0.895755 -7.2e-4,10.997417 0.45885,22.004476 -0.001,32.992258 -0.0237,0.567145 -0.0595,1.135265 0.062,1.701552 0.29334,1.366934 0.9839,2.596363 1.62464,3.822813 0.23048,0.441165 0.6289,0.862485 0.61593,1.368136 -0.008,0.314565 -0.0235,0.589088 0.14002,0.899722 0.23225,0.441104 0.57371,0.864209 0.61882,1.368348 0.0412,0.460748 -0.28695,0.967626 -0.004,1.385675 0.22667,0.334318 0.73944,0.461799 0.78423,0.920205 0.0439,0.448982 -0.3179,0.946635 -0.0278,1.347439 0.22828,0.315356 0.70984,0.427994 0.76167,0.881273 0.057,0.49856 -0.25073,1.04153 0.0508,1.50299 0.21319,0.32628 0.62921,0.4377 0.73875,0.86532 0.25661,1.00173 0.63444,1.98645 0.71389,3.02167 0.0324,0.42188 -0.14974,0.86759 -0.0189,1.26639 0.2777,0.84625 0.76549,1.65761 0.78364,2.55924 0.0109,0.54108 -0.0396,1.08031 -0.0396,1.6222 0,4.89398 0,9.78797 0,14.68195"
       id="path23269"
       inkscape:connector-curvature="0"
       inkscape:path-effect="#path-effect23271"
       inkscape:original-d="m 31.75,123.13095 c 1.598893,-3.10028 -0.710621,-6.62959 0,-9.82738 0.29437,-1.32466 1.035439,-2.50919 1.511905,-3.77976 0.279789,-0.74611 0.399593,-1.55514 0.755952,-2.26786 1.658985,-3.31797 1.698498,-1.31573 3.023809,-5.29167 0.406313,-1.21893 0.349639,-2.56082 0.755952,-3.779758 0.356359,-1.069078 1.202319,-1.940261 1.511906,-3.023809 0.308562,-1.079969 -0.568061,-2.897087 0.755951,-3.779761 0.419328,-0.279551 1.033799,0.159369 1.511906,0 0.338072,-0.112692 0.503968,-0.503968 0.755952,-0.755952 0.864925,-0.864925 1.054243,-0.894876 1.511906,-2.267857 0.159366,-0.478108 -0.35636,-1.155547 0,-1.511906 0.178178,-0.178179 0.64326,0.225382 0.755951,0 0.22538,-0.450763 -0.122229,-1.022983 0,-1.511903 0.136658,-0.546632 0.619295,-0.965277 0.755952,-1.511906 0.122229,-0.488921 0,-1.007936 0,-1.511906 0,-1.25992 0,-2.519842 0,-3.779761 0,-0.503968 -0.159369,-1.033798 0,-1.511906 0.112691,-0.338071 0.643263,-0.41788 0.755952,-0.755951 0.159369,-0.478108 0,-1.007936 0,-1.511904 0,-1.259922 0,-2.519841 0,-3.779763 0,-0.251984 0,-0.503968 0,-0.755952 0,-0.251983 -0.112689,-0.530571 0,-0.755951 0.159369,-0.318738 0.643262,-0.41788 0.755954,-0.755954 0.159369,-0.478105 0,-1.007936 0,-1.511904 0,-0.251984 -0.112692,-0.530571 0,-0.755954 0.45357,-0.907142 1.814285,-1.360712 2.267857,-2.267855 0.112689,-0.225382 -0.112691,-0.530571 0,-0.755954 0.159367,-0.318738 0.596583,-0.437213 0.755952,-0.755952 0.112691,-0.225382 -0.178181,-0.577773 0,-0.755951 0.178178,-0.178181 0.530571,0.112688 0.755952,0 2.305322,-1.152663 -1.382594,-0.599292 2.267857,-1.511906 0.488921,-0.12223 1.033799,0.159369 1.511906,0 0.338071,-0.112692 0.503968,-0.503968 0.755951,-0.755952 0.503968,-0.251984 0.977366,-0.577773 1.511904,-0.755951 0.239053,-0.07968 0.530571,0.112688 0.755954,0 0.318736,-0.15937 0.41788,-0.643263 0.755952,-0.755955 0.478107,-0.159369 1.155546,0.35636 1.511905,0 0.35636,-0.356359 -0.09884,-1.017722 0,-1.511903 0.156274,-0.78137 0.503968,-1.511906 0.755952,-2.267857 0.472818,-1.418455 0.877419,-3.608758 2.267858,-4.535715 0.38069,-1.665486 1.555138,-0.399593 2.267857,-0.755952 0.637474,-0.318738 0.874429,-1.193168 1.511903,-1.511906 0.273378,-0.136689 3.253968,0 3.779764,0 2.015871,0 4.031744,0 6.047618,0 0.755952,0 1.511903,0 2.267857,0 0.755952,0 1.526585,0.148254 2.267858,0 1.798846,-0.35977 3.511965,-1.06698 5.291666,-1.511903 1.246508,-0.311629 2.560826,-0.349642 3.779761,-0.755954 1.069078,-0.35636 1.988018,-1.067994 3.023809,-1.511904 0.201356,-0.0863 4.488059,-1.476163 4.535715,-1.511905 0.450763,-0.338072 0.287131,-1.199357 0.755952,-1.511904 0.175085,-0.116726 2.597952,0.106463 3.023812,0 1.09326,-0.273317 1.95473,-1.155546 3.02381,-1.511906 0.53224,-0.177413 4.5617,0 5.29166,0 4.53572,0 9.07143,0 13.60715,0 6.04762,0 12.09523,0 18.14285,0 2.26786,0 4.53572,0 6.80357,0 0.75596,0 1.5222,-0.124277 2.26786,0 1.57201,0.262001 2.96371,1.249905 4.53572,1.511906 0.74566,0.124278 1.52658,-0.148256 2.26785,0 0.55252,0.110501 1.00794,0.503968 1.51191,0.755952 1.00793,0.503968 1.9775,1.093383 3.02381,1.511906 0.73985,0.295939 1.55514,0.399592 2.26785,0.755951 0.67785,0.338921 2.20489,2.918865 2.26786,3.023809 0.2899,0.483159 0.41788,1.061141 0.75595,1.511906 0.42764,0.570175 1.19317,0.87443 1.51191,1.511904 0.22538,0.450762 -0.15937,1.033798 0,1.511905 0.11269,0.338072 0.59658,0.437214 0.75595,0.755952 0.11269,0.22538 0,0.503968 0,0.755952 0,0.503967 0,1.007938 0,1.511906 0,1.763887 0,3.527776 0,5.291666 0,6.299602 0,12.599207 0,18.898809 0,1.76389 0,3.527777 0,5.291667 0,0.755951 0,1.511906 0,2.267857 0,0.503968 -0.0988,1.017723 0,1.511903 0.31138,1.556888 0.83995,2.435847 1.51191,3.779764 0.25198,0.503968 0.57777,0.977365 0.75595,1.511903 0.0797,0.239054 0,0.50397 0,0.755954 0.25198,0.503968 0.57777,0.977366 0.75595,1.511904 0.15937,0.478107 -0.22538,1.061143 0,1.511905 0.15937,0.318739 0.59659,0.437214 0.75595,0.755952 0.22538,0.450763 -0.22538,1.061143 0,1.511906 0.15937,0.318735 0.64326,0.41788 0.75596,0.755951 0.15937,0.478103 -0.15937,1.033803 0,1.511903 0.11268,0.33807 0.50396,0.50397 0.75595,0.75595 0.25198,1.00794 0.58515,1.99899 0.75595,3.02381 0.0828,0.49711 0,1.00794 0,1.51191 0.25198,0.75595 0.59968,1.48649 0.75595,2.26785 0.0988,0.49419 0,1.00794 0,1.51191 0,1.99216 0,1.03165 0,3.02381 0,4.03175 0,8.06349 0,12.09524" />
    <path
       style="fill:#000000;stroke:#000000;stroke-width:0.26458332px;stroke-linecap:butt;stroke-linejoin:miter;stroke-opacity:1"
       d="m 47.624999,62.654761 c 3.0344,3.68e-4 6.081579,-0.455682 9.10349,-0.08262 0.294145,0.03631 0.602139,0.02065 0.882344,0.119115 0.417368,0.146664 0.673985,0.536874 0.901303,0.890387 0.174211,0.270924 0.382745,0.516196 0.61085,0.743725 0.735508,0.733652 1.438521,1.501328 2.205215,2.202289 0.28212,0.257932 0.563275,0.519449 0.785134,0.834979 0.521944,0.742312 0.938482,1.555809 1.517681,2.259146 0.343825,0.417516 0.743403,0.790611 1.055379,1.233585 0.119296,0.169388 0.311243,0.07708 0.479562,0.103577 0.325402,0.05122 0.605546,0.244684 0.87461,0.422518 0.43426,0.287019 0.839508,0.617161 1.19524,0.998774 0.388294,0.416544 0.765967,0.843649 1.192196,1.22342 0.39544,0.352338 0.669803,0.811544 0.943189,1.258433 0.360605,0.58946 0.737184,1.170188 1.181868,1.702385 0.419737,0.50234 0.900615,0.951944 1.429263,1.337774 0.443283,0.323527 0.823241,0.727607 1.129561,1.182677 0.408537,0.606924 0.77039,1.247284 1.067001,1.915171 0.585769,1.318993 0.72087,2.770464 1.289116,4.105763 0.07681,0.180488 0.209235,0.321749 0.345819,0.459481 1.868443,1.884147 3.719653,3.78659 5.64156,5.616175 0.322587,0.307091 0.527255,0.71237 0.711843,1.111382 0.353284,0.763672 0.569851,1.611007 1.105591,2.272917 0.457852,0.565679 1.109112,0.939282 1.534675,1.538028 0.501189,0.705148 0.804925,1.553887 1.447514,2.154541 0.669183,0.625512 1.598184,0.886712 2.26866,1.501737 0.263338,0.241559 0.450193,0.559919 0.769668,0.745959 0.964209,0.56148 2.076963,0.84914 2.988938,1.49414 0.322088,0.2278 0.547117,0.55612 0.816872,0.83942 0.54096,0.56813 1.052885,1.17463 1.715287,1.6143 0.319822,0.21228 0.684177,0.33774 1.042474,0.46759 0.432049,0.15658 0.744659,0.52515 0.959848,0.91332 0.230632,0.41603 0.250762,0.92886 0.563922,1.30443 0.130595,0.15662 0.339096,0.21123 0.539951,0.19084 0.328753,-0.0334 0.645176,-0.18913 0.984925,-0.13206 0.165627,0.0278 0.212055,0.20255 0.277017,0.33145 0.445803,0.88455 0.883445,1.77313 1.309945,2.66726 0.17443,0.36568 0.68019,0.44641 0.80511,0.83894 0.16871,0.53011 -0.1481,1.08063 0.0295,1.61297 0.18079,0.54188 0.67322,0.94626 0.7481,1.5264 0.0614,0.47591 -0.21517,0.97536 -0.0101,1.42742 0.16464,0.36301 0.60034,0.46972 0.80005,0.81474 0.26918,0.46503 0.31396,1.05954 0.71919,1.44046 0.4413,0.41483 1.11608,0.41288 1.57261,0.79808 0.25832,0.21796 0.37662,0.62704 0.72006,0.71202 0.2228,0.0551 0.47071,-0.19457 0.65782,-0.0551 0.14105,0.10516 0.2588,0.25573 0.31584,0.42442 0.0576,0.17027 -0.0944,0.30719 -0.24332,0.36371 -0.063,0.0239 -0.17513,0.0338 -0.0492,0.0266 0.54714,-0.0312 1.09529,-0.0292 1.64321,-0.0376 0.67864,-0.0104 1.36443,0.0913 2.0367,-0.006 0.16966,-0.0245 0.2497,0.14126 0.2246,0.29602 -0.0362,0.22343 -0.0964,0.4384 -0.0653,0.6767 0.0227,0.17428 0.21933,0.45851 0.0441,0.54018 -0.22269,0.10379 -0.1486,-0.21352 -0.14643,-0.35262 0.002,-0.1107 0.14952,-0.38516 0.018,-0.37824 -4.76899,0.25101 -9.53798,0.502 -14.306979,0.75301"
       id="path23273"
       inkscape:connector-curvature="0"
       inkscape:path-effect="#path-effect23275"
       inkscape:original-d="m 47.624999,62.654761 c 3.275793,0 6.580323,-0.43294 9.827382,0 0.706467,0.09419 1.007935,1.007936 1.511903,1.511906 0.755954,0.755952 1.511906,1.511903 2.267858,2.267855 0.251984,0.251984 0.542136,0.470866 0.755951,0.755954 0.545127,0.726832 0.944346,1.558404 1.511906,2.267858 2.314551,2.893187 0.554863,0.416144 3.023809,2.267855 0.570175,0.427632 1.007938,1.007938 1.511906,1.511905 0.251984,0.251984 0.542137,0.470866 0.755952,0.755952 0.545126,0.726834 0.944343,1.558407 1.511906,2.267858 1.84836,2.310452 2.064395,1.104987 3.77976,4.535715 0.712719,1.425437 0.69196,3.169136 1.511906,4.535715 0.08804,0.146724 5.874073,5.816224 6.047618,6.047618 0.676143,0.901525 0.88681,2.086165 1.511904,3.023809 0.395345,0.593018 1.066673,0.955365 1.511906,1.511906 0.56756,0.709451 0.869468,1.62542 1.511905,2.267855 0.642435,0.642437 1.541024,0.966779 2.267855,1.511905 0.285089,0.213816 0.450379,0.572603 0.755955,0.755953 0.966313,0.57979 2.057492,0.93212 3.023809,1.5119 0.305575,0.18335 0.503967,0.50397 0.755951,0.75596 0.503968,0.50396 0.941732,1.08427 1.511906,1.5119 1.224039,0.91803 1.497132,0.35582 2.267858,1.51191 0.312547,0.46882 0.287128,1.19935 0.755951,1.5119 0.419328,0.27955 1.092579,-0.27955 1.511904,0 0.08209,0.0547 1.31114,2.72266 1.51191,3.02381 0.19767,0.29651 0.64326,0.41788 0.75595,0.75595 0.15937,0.47811 -0.12223,1.02299 0,1.51191 0.13665,0.54663 0.61929,0.96527 0.75595,1.5119 0.12223,0.48892 -0.15937,1.0338 0,1.51191 0.11269,0.33807 0.55828,0.45944 0.75595,0.75595 0.31255,0.46882 0.35753,1.11348 0.75595,1.5119 0.39843,0.39842 1.04309,0.44341 1.51191,0.75596 0.29651,0.19767 0.43721,0.59658 0.75595,0.75595 0.22538,0.11269 0.57778,-0.17818 0.75595,0 1.00794,1.00794 -1.25992,0.75595 0.75596,0.75595 0.4966,0 2.84604,-0.0889 3.02381,0 0.22538,0.11269 0,0.50397 0,0.75595 0,0.25199 0.25198,0.75596 0,0.75596 -0.25199,0 0,-0.50397 0,-0.75596 -4.7877,0.25199 -9.57539,0.50397 -14.363089,0.75596" />
    <path
       style="fill:#000000;stroke:#000000;stroke-width:0.26458332px;stroke-linecap:butt;stroke-linejoin:miter;stroke-opacity:1"
       d="m 112.6369,46.02381 c -0.21888,1.703407 0.0251,3.416158 0.0879,5.121189 0.032,0.868308 0.0606,1.750394 -0.11699,2.603438 -0.1556,0.747469 -0.68456,1.390604 -0.73469,2.154287 -0.0324,0.494312 0.007,0.989969 0.0254,1.484246 0.0241,0.656601 0.0438,1.313464 0.0341,1.971326 -0.003,0.172182 -0.0695,0.331277 -0.17234,0.469922 -0.41031,0.552953 -1.09739,0.826816 -1.46239,1.425754 -0.36352,0.596512 -0.59246,1.259942 -0.9443,1.864666 -0.2279,0.391701 -0.49861,0.793487 -0.52834,1.25672 -0.03,0.468136 0.15353,0.942485 0.003,1.404526 -0.18452,0.566882 -0.59346,1.02251 -0.79329,1.585291 -0.26494,0.746159 -0.38665,1.544951 -0.76825,2.248 -0.15716,0.289548 -0.28675,0.606254 -0.51803,0.844635 -0.15198,0.156643 -0.16237,-0.1232 -0.16017,-0.229164 0.005,-0.251021 0.2761,-0.88559 0.066,-0.74918 -0.0862,0.05595 -0.12658,0.228461 -0.1678,0.342009 -0.23438,0.645603 -0.53527,1.275962 -0.66544,1.950122 -0.0475,0.246006 0.13437,0.507958 -0.004,0.739798 -0.18235,0.305594 -0.62944,0.37386 -0.74008,0.726699 -0.14613,0.466031 0.20457,0.948089 0.0422,1.403949 -0.14711,0.413009 -0.51973,0.681956 -0.85079,0.943548 -0.2716,0.214609 -0.61566,0.40586 -0.73561,0.737408 -0.0825,0.22818 0.1362,0.487763 0.0323,0.694856 -0.29575,0.589449 -0.47704,1.257957 -0.95422,1.738339 -0.42383,0.426678 -0.99994,0.713126 -1.29836,1.255833 -0.16643,0.302668 -0.0654,0.656025 -0.005,0.971915 0.0444,0.23108 0.0273,0.469067 -0.054,0.694239 -0.40573,1.123698 -1.19261,2.066264 -1.582716,3.195329 -0.24417,0.706685 -0.369477,1.45531 -0.720119,2.125008 -0.694399,1.326247 -1.642596,2.501242 -2.300711,3.84948 -0.451445,0.924846 -0.970683,1.827083 -1.285778,2.80804 -0.07004,0.218037 -0.208401,0.453837 -0.132188,0.678427 0.06772,0.199551 -0.04132,0.400013 -0.12517,0.575158 -0.412877,0.862428 -0.834999,1.726944 -1.369495,2.518947 -0.659986,0.977952 -1.391148,1.908757 -2.01345,2.91163 -0.04068,0.0656 -0.165945,0.18623 -0.06784,0.0438 0.191793,-0.2784 0.420294,-0.530627 0.668335,-0.764612 0.158798,-0.149799 0.262588,0.04829 0.246703,0.216778 -0.0455,0.482544 -0.153594,0.966604 -0.357418,1.403094 -0.154652,0.33119 -0.631062,0.37026 -0.744188,0.725 -0.15895,0.49844 0.185775,1.02283 0,1.51191 -0.132218,0.34808 -0.62173,0.38061 -0.74419,0.725 -0.197926,0.55663 -0.114079,1.15572 -0.04538,1.72639 0.05723,0.47544 0.146069,1.90226 0.06019,1.43172 -0.02972,-0.16286 -0.120135,-0.38405 -0.311598,-0.37544 -0.197994,0.009 -0.406268,0.12034 -0.485892,0.28994 -0.08395,0.17882 -0.03219,0.40401 0.07872,0.54589 0.07789,0.0996 -0.122853,0.30111 -0.132271,0.14261 -0.01315,-0.22133 0.230274,-0.43521 0.140495,-0.63659 -0.07977,-0.17892 -0.317202,0.0367 -0.394071,0.14171 -0.140566,0.19196 -0.21348,0.48212 -0.455536,0.55376 -0.225422,0.0667 -0.471179,-0.20709 -0.660999,-0.0775 -0.154236,0.10527 -0.161131,0.33362 -0.160567,0.50299 0.0018,0.53399 0.210577,1.04911 0.161703,1.58685 -0.02268,0.24958 -0.202084,0.44025 -0.396594,0.58316 -0.203245,0.14933 -0.449987,0.3134 -0.479544,0.58955 -0.0523,0.48861 -0.0023,0.98075 0.02733,1.46935 0.03718,0.61258 0.176727,1.23329 0.07719,1.84011 -0.02059,0.12555 0.0041,0.35581 -0.155097,0.36824 -0.213215,0.0166 -0.459999,-0.25086 -0.622997,-0.0953 -0.106212,0.10136 -0.06444,0.28448 -0.06494,0.42247 -0.003,0.84481 0.03194,1.68903 0.04072,2.53382 0.0018,0.16849 -0.169211,0.27418 -0.301175,0.34248 -0.386111,0.19983 -0.863369,0.19637 -1.204165,0.48957 -0.183837,0.15816 -0.140211,0.42476 -0.09416,0.63565 0.06181,0.28306 0.230401,0.60066 0.08517,0.87325 -0.145195,0.27253 -0.404361,0.45686 -0.629264,0.65962 -0.19812,0.17861 -0.419563,0.34294 -0.560444,0.57458 -0.09302,0.15295 0.08988,0.25617 0.223495,0.27437 0.388286,0.0529 0.781723,0.0612 1.17295,0.0788 3.454723,0.15592 6.911232,-0.0542 10.366627,-0.0542"
       id="path23277"
       inkscape:connector-curvature="0"
       inkscape:path-effect="#path-effect23279"
       inkscape:original-d="m 112.6369,46.02381 c -0.32275,2.473494 0.35275,5.090295 0,7.559524 -0.11269,0.788834 -0.59968,1.486487 -0.75595,2.267855 -0.0949,0.47458 0.18711,3.405542 0,3.779763 -0.31874,0.637474 -1.11656,0.918888 -1.5119,1.511903 -0.31255,0.468824 -0.50397,1.007939 -0.75596,1.511906 -0.25198,0.503968 -0.61929,0.965274 -0.75595,1.511906 -0.12223,0.488921 0.12223,1.022983 0,1.511903 -0.13666,0.546632 -0.54669,0.988751 -0.75595,1.511906 -0.29594,0.739849 -0.39959,1.555136 -0.75595,2.267858 -1.72985,3.459697 0.31332,-3.207822 -1.51191,2.267855 -0.0797,0.239053 0.11269,0.530571 0,0.755954 -0.15937,0.318735 -0.64326,0.41788 -0.75595,0.755951 -0.15937,0.478108 0.22538,1.061141 0,1.511906 -0.31874,0.637474 -1.11656,0.918885 -1.51191,1.511904 -0.13977,0.209663 0,0.503967 0,0.755951 -0.25198,0.503971 -0.41788,1.061143 -0.75595,1.511906 -0.42763,0.570175 -1.19316,0.874429 -1.5119,1.511906 -0.22538,0.450763 0.15937,1.033796 0,1.511903 -0.35636,1.069078 -1.068,1.988018 -1.511906,3.023809 -0.313894,0.732415 -0.399595,1.555139 -0.755954,2.267858 -0.657093,1.314188 -1.610763,2.465572 -2.267855,3.779763 -3.239955,6.479908 0.182454,1.192604 -3.023812,6.80357 -4.700468,7.05071 0.101727,-1.06113 -1.511903,3.77976 -0.112692,0.33807 -0.643263,0.41788 -0.755952,0.75595 -0.159369,0.47811 0.159367,1.0338 0,1.51191 -0.112691,0.33807 -0.643263,0.41788 -0.755954,0.75595 -0.239054,0.71716 0,1.51191 0,2.26786 0,2.01587 0.251984,-0.25199 -0.755952,0.75595 -0.178181,0.17818 0.251984,0.75595 0,0.75595 -0.251984,0 0.251984,-0.75595 0,-0.75595 -0.356359,0 -0.437216,0.59658 -0.755951,0.75595 -0.225383,0.11269 -0.643263,-0.22538 -0.755955,0 -0.302379,0.60477 0.302382,1.6631 0,2.26786 -0.159366,0.31874 -0.596582,0.43721 -0.755951,0.75595 -0.234307,0.46862 0.231981,3.3158 0,3.77977 -0.112692,0.22538 -0.577774,-0.17819 -0.755952,0 -0.0883,0.0883 0.06282,2.92957 0,3.0238 -0.312547,0.46883 -1.113483,0.35753 -1.511906,0.75596 -0.356359,0.35636 0.225383,1.06114 0,1.5119 -0.275307,0.55062 -2.004457,1.42867 -0.755951,1.51191 3.771394,0.25142 7.559532,0 11.339295,0" />
    <path
       style="fill:#000000;stroke:#000000;stroke-width:0.26458332px;stroke-linecap:butt;stroke-linejoin:miter;stroke-opacity:1"
       d="m 78.619047,51.315476 c 0.503968,1.007937 1.187955,1.944469 1.511904,3.02381 0.738517,2.46061 1.200344,5.009629 2.194687,7.389698 0.331412,0.793271 0.8117,1.512757 1.295371,2.219049 1.275415,1.862455 2.682782,3.628687 4.022261,5.444435 0.564086,0.764654 0.895276,1.697102 1.589472,2.363534 0.666951,0.640277 1.673113,0.815377 2.276131,1.522611 0.329043,0.385909 0.512703,0.868977 0.674253,1.342701 0.343463,1.007159 0.485115,2.069604 0.781998,3.089219 0.203617,0.699303 0.498357,1.377075 0.621565,2.095187 0.02923,0.170371 0.186443,0.197633 0.309121,0.296428 0.250636,0.201841 0.416745,0.486845 0.577175,0.760302 0.305313,0.520413 0.612912,1.043626 0.847018,1.59965 0.29275,0.69531 0.291899,1.497346 0.703378,2.143733 0.414168,0.650611 1.140285,1.00182 1.598596,1.618167 0.553513,0.744377 0.943129,1.59877 1.553705,2.304964 1.394088,1.612405 3.200638,2.825539 4.509918,4.513007 0.56504,0.728253 0.98395,1.553802 1.52225,2.301406 0.75968,1.055061 1.58008,2.069381 2.27492,3.168264 0.0477,0.07545 0.0893,0.106895 0.0343,-0.0023 -0.0935,-0.185705 -0.3624,-0.379605 -0.26608,-0.565869 0.0585,-0.11317 0.22576,0.09057 0.29081,0.155569 0.69314,0.692555 1.29014,1.473882 1.94471,2.201655 0.69344,0.77099 1.06764,1.76378 1.74665,2.54675 1.12933,1.30225 2.63947,2.23613 3.65904,3.63585 0.27821,0.38194 0.55337,0.77579 0.72032,1.22355 0.0756,0.20265 0.008,0.4423 0.15076,0.62313 0.2432,0.30831 0.56048,0.54791 0.87103,0.78343 0.34484,0.26153 0.68277,0.5377 1.0792,0.7225 0.51391,0.23957 1.11126,0.39135 1.48401,0.84217 0.11005,0.1331 0.24979,0.2725 0.26799,0.44749 0.0216,0.20751 -0.18454,0.43101 -0.0635,0.61162 0.0773,0.11538 0.046,0.2702 0.0655,0.40754 0.0354,0.24948 0.11817,0.56925 0.38792,0.64621 0.29078,0.083 0.5831,-0.0551 0.85303,-0.15071 0.26112,-0.0925 0.52802,-0.21711 0.81481,-0.19061 0.19619,0.0181 0.25143,0.212 0.20927,0.39507 -0.0334,0.14498 -0.15556,0.34269 -0.0242,0.45886 0.1404,0.12415 0.34049,0.0448 0.49074,-0.009 0.17137,-0.0609 0.33739,0.0337 0.44656,0.1738 0.14195,0.18219 0.17633,0.49141 0.40298,0.56335 0.272,0.0863 0.56517,-0.061 0.83454,-0.12456 4.12947,-0.97515 8.12202,-2.43193 12.18828,-3.62779"
       id="path23281"
       inkscape:connector-curvature="0"
       inkscape:path-effect="#path-effect23283"
       inkscape:original-d="m 78.619047,51.315476 c 0.503968,1.007936 1.007936,2.015871 1.511904,3.02381 0.755954,2.519841 1.213387,5.149304 2.267857,7.559524 0.784842,1.79392 3.970592,5.710015 5.291667,7.559524 0.528079,0.739309 0.869468,1.62542 1.511906,2.267855 0.642434,0.642437 1.62542,0.869468 2.267857,1.511905 0.82917,0.82917 1.341033,3.937667 1.511903,4.535715 1.266738,4.433581 0.05914,0.118275 2.267858,4.535713 0.356359,0.712719 0.34598,1.584571 0.755951,2.267857 0.366692,0.611153 1.066673,0.955366 1.511906,1.511906 0.567561,0.709451 0.93027,1.569895 1.511904,2.267858 1.36882,1.642575 3.1669,2.893136 4.53571,4.535712 0.58164,0.697963 0.98383,1.528548 1.51191,2.267858 5.66217,7.927037 -0.95892,-1.301896 4.53571,5.291667 0.58164,0.69796 0.93028,1.5699 1.51191,2.26786 1.14068,1.36881 2.71068,2.35432 3.77976,3.77976 1.65566,2.20754 -0.37734,1.03991 2.26786,3.02381 0.73659,0.55244 1.80542,0.58703 2.26785,1.5119 0.1127,0.22538 -0.17817,0.57778 0,0.75596 0.0469,2.12856 1.70441,0.19249 2.26786,0.75595 0.17818,0.17818 -0.17818,0.57777 0,0.75595 0.17818,0.17818 0.53057,-0.11269 0.75595,0 0.31874,0.15937 0.40808,0.83326 0.75596,0.75595 4.35884,-0.96863 8.56746,-2.51983 12.85119,-3.77975" />
    <path
       style="fill:#000000;stroke:#000000;stroke-width:0.26458332px;stroke-linecap:butt;stroke-linejoin:miter;stroke-opacity:1"
       d="m 112.6369,114.05952 c 0.60848,-2.15517 1.06139,-4.36761 1.96641,-6.42704 0.34657,-0.78864 0.78587,-1.53446 1.30043,-2.22591 0.41696,-0.5603 0.81495,-1.1438 1.3201,-1.62931 0.17516,-0.16835 0.39521,-0.34095 0.65382,-0.30393 0.33235,0.0476 0.64801,-0.1043 0.91434,-0.28717 0.56766,-0.38978 1.07433,-0.86361 1.54284,-1.36528 0.83989,-0.89934 1.34867,-2.035857 1.87205,-3.133593 0.47917,-1.005014 0.95856,-2.066796 1.80756,-2.806712 0.42886,-0.373757 1.08397,-0.323421 1.48865,-0.734956 0.65718,-0.668317 1.09071,-1.50891 1.53626,-2.321639 0.25814,-0.470872 0.31803,-1.058426 0.71659,-1.443028 0.30009,-0.289584 0.60687,-0.587243 0.98538,-0.774879 0.14971,-0.07421 0.31781,-0.04829 0.47228,0.0061 0.18601,0.0655 0.33325,-0.107532 0.43816,-0.234093 0.42185,-0.508926 0.72805,-1.099985 0.99213,-1.703568 0.28045,-0.640989 0.48836,-1.33582 0.93164,-1.882916 0.21161,-0.26117 0.60969,-0.362823 0.71613,-0.702313 0.14612,-0.466032 -0.2206,-0.954118 -0.0422,-1.40395 0.10877,-0.274257 0.25319,-0.535505 0.41346,-0.782773 0.18898,-0.291567 0.39448,-0.595859 0.7064,-0.771235 0.16647,-0.0936 0.37197,-0.01109 0.5379,-0.08787 0.21129,-0.09776 0.29873,-0.33648 0.37188,-0.539804 0.1224,-0.34022 0.25462,-0.684235 0.29748,-1.043031 0.0505,-0.42267 -0.1977,-0.833977 -0.0923,-1.253656 0.0699,-0.278308 0.3544,-0.410889 0.60857,-0.486902 0.31777,-0.09503 0.69427,-0.113652 0.93097,-0.372581 0.19833,-0.216959 0.14818,-0.533553 0.0927,-0.795685 -0.064,-0.302248 -0.15169,-0.643302 0.0223,-0.927499 0.25992,-0.424662 0.76459,-0.588806 1.11939,-0.913569 0.14624,-0.133858 0.32526,-0.297982 0.32539,-0.505658 4.6e-4,-0.73701 -0.52841,-1.697034 -2.1e-4,-2.21103 0.43399,-0.422323 1.09778,-0.418376 1.56393,-0.797863 1.11794,-0.910109 2.06839,-1.997782 3.04106,-3.054981 0.22691,-0.24663 0.39134,-0.615602 0.73035,-0.699482 0.22279,-0.05512 0.44689,0.154955 0.65782,0.05508 0.15303,-0.07246 0.11734,-0.266879 0.079,-0.398741 -0.0452,-0.155366 -0.0826,-0.333775 0.0283,-0.47991 0.19817,-0.261157 0.60209,-0.340527 0.70314,-0.671719 0.13508,-0.442714 -0.17262,-0.880873 -0.079,-1.324347 0.0641,-0.303343 0.37075,-0.456468 0.64196,-0.54478 0.33095,-0.107764 0.74768,-0.122611 0.9646,-0.415861 0.12941,-0.174949 0.0251,-0.399194 -4.1e-4,-0.590755 -0.0291,-0.218579 -0.0146,-0.44027 -0.0153,-0.660417 -0.004,-1.368362 -0.0666,-2.736328 -0.0538,-4.104695 0.004,-0.458092 -0.10603,-0.939045 0.0383,-1.374512 0.0517,-0.155874 0.15094,-0.293508 0.23849,-0.432101 1.08689,-1.720527 2.73212,-2.984241 3.9132,-4.631334 0.66939,-0.933509 1.24713,-1.950046 2.09898,-2.73625 0.29291,-0.270338 0.60142,-0.527294 0.94696,-0.735386 0.14447,-0.087 0.35949,-0.02799 0.37529,0.156276 0.0115,0.13472 0.0776,0.380572 0.25238,0.209553 0.30619,-0.299658 0.54728,-0.658388 0.78579,-1.011841 0.16665,-0.246959 0.40727,-0.45969 0.49696,-0.743443 0.0705,-0.223127 -0.16603,-0.451994 -0.0589,-0.660034 0.0874,-0.169681 0.31158,-0.151491 0.46497,-0.107215 0.18341,0.05294 0.37337,0.05265 0.5625,0.05238 1.41986,-0.002 3.04634,0.740754 4.25957,0.0031 0.10486,-0.06376 0.0528,-0.286922 0.053,-0.419701 0.001,-0.617106 -0.006,-1.234187 -0.0106,-1.851266"
       id="path23285"
       inkscape:connector-curvature="0"
       inkscape:path-effect="#path-effect23287"
       inkscape:original-d="m 112.6369,114.05952 c 0.73672,-2.57849 1.35788,-5.98317 3.02381,-8.31547 3.09607,-4.3345 1.22045,-0.4645 4.53572,-3.77977 1.72473,-1.72472 2.05503,-4.322884 3.77976,-6.047613 0.39842,-0.398423 1.11348,-0.357532 1.5119,-0.755954 0.64244,-0.642435 1.04447,-1.48879 1.51191,-2.267858 0.28989,-0.483156 0.35753,-1.113483 0.75595,-1.511903 1.83606,-1.83606 1.11006,0.224795 2.26786,-1.511906 0.62509,-0.937644 0.88681,-2.086166 1.5119,-3.023809 0.19768,-0.296508 0.64326,-0.41788 0.75596,-0.755952 0.15936,-0.478107 -0.22539,-1.061143 0,-1.511906 1.5061,-3.012204 1.51273,-0.0033 2.26785,-3.023809 0.12223,-0.488921 -0.27955,-1.092578 0,-1.511903 0.31255,-0.468823 1.19936,-0.287131 1.51191,-0.755954 0.27955,-0.419328 -0.15937,-1.033799 0,-1.511904 0.22538,-0.676145 1.28652,-0.83576 1.5119,-1.511905 0.001,-0.0034 -7.9e-4,-2.267136 0,-2.267858 0.39842,-0.39842 1.07192,-0.403966 1.51191,-0.755952 1.11308,-0.890463 2.01587,-2.015873 3.02381,-3.023809 0.25198,-0.251983 0.43721,-0.596585 0.75595,-0.755951 0.22538,-0.112692 0.57777,0.178178 0.75595,0 0.17818,-0.178181 -0.11269,-0.530572 0,-0.755954 0.15937,-0.318739 0.64326,-0.417881 0.75595,-0.755952 0.15937,-0.478107 -0.27955,-1.092578 0,-1.511906 0.31255,-0.46882 1.11348,-0.357529 1.51191,-0.755952 0.17818,-0.178178 0,-0.503967 0,-0.755951 0,-0.251984 0,-0.503968 0,-0.755952 0,-0.90796 -0.12165,-5.0727 0,-5.291666 0.95577,-1.720395 2.55032,-2.99892 3.77976,-4.535715 0.78706,-0.983835 1.37696,-2.132912 2.26786,-3.02381 2.78851,-2.788515 0.30503,1.810303 3.02381,-2.267857 0.13977,-0.209664 -0.17818,-0.577773 0,-0.755952 0.17818,-0.178181 0.50397,0 0.75595,0 0.25198,0 0.50397,0 0.75595,0 0.284,0 3.7609,0.01887 3.77976,0 0.0243,-0.02431 0,-2.084519 0,-2.267857" />
    <path
       style="fill:#000000;stroke:#000000;stroke-width:0.26458332px;stroke-linecap:butt;stroke-linejoin:miter;stroke-opacity:1"
       d="m 139.85119,40.732143 c -7.8e-4,4.578956 0.0777,9.158607 -0.001,13.736875 -0.023,1.336058 -0.0969,2.672974 -0.0452,4.008957 0.009,0.227711 0.0298,0.470629 0.19826,0.647161 0.21667,0.227107 0.48492,0.391943 0.71138,0.611283 0.74837,0.724829 1.65432,1.320976 2.20075,2.22513 0.43914,0.726621 0.45997,1.602444 0.78608,2.376141 0.59461,1.410717 1.52256,2.64294 2.40709,3.879841 0.64305,0.899224 1.23189,1.836656 1.75001,2.814265 0.78543,1.481986 1.3698,3.068973 2.27633,4.486352 0.4429,0.692485 0.90888,1.376573 1.46476,1.983508 0.89435,0.976489 1.95065,1.78731 2.82992,2.780769 1.48386,1.676561 2.86397,3.440517 4.2822,5.171977 2.11793,2.585699 4.19856,5.202392 6.35171,7.758823 1.07624,1.27782 2.21797,2.516424 3.06757,3.96623 1.57366,2.685386 2.42431,5.731165 4.09607,8.365845 1.15606,1.82194 2.86503,3.19852 4.07862,4.97922 0.56953,0.83567 1.08056,1.73209 1.32721,2.72054 0.14488,0.58061 0.33892,1.15303 0.64571,1.6702 0.5476,0.9231 1.24028,1.75226 1.96892,2.53563 0.65067,0.69955 1.37502,1.37642 2.2788,1.72794 0.46163,0.17955 0.91944,0.39045 1.29125,0.72703 0.57541,0.5209 1.06757,1.13711 1.44958,1.80808 0.3987,0.70028 0.24695,1.61709 0.75338,2.25641 0.41487,0.52374 0.90645,0.98073 1.3896,1.43987 0.56681,0.53864 1.10242,1.11268 1.7019,1.61448 0.27765,0.23241 0.62149,0.45421 0.70513,0.82958 0.0389,0.17477 0.20484,0.5559 0.003,0.55699 -0.32744,0.002 -0.66185,-0.0882 -0.98784,-0.14707 -4.27166,-0.77153 -8.46087,-1.92445 -12.69569,-2.86548"
       id="path23289"
       inkscape:connector-curvature="0"
       inkscape:path-effect="#path-effect23291"
       inkscape:original-d="m 139.85119,40.732143 c 0,4.535713 0,9.071428 0,13.607143 0,0.641535 -0.13892,4.118972 0,4.535715 0.11269,0.338071 0.50397,0.503967 0.75595,0.755951 0.75595,0.755952 1.67484,1.378331 2.26786,2.267858 0.44201,0.663014 0.46001,1.528005 0.75595,2.267857 0.20926,0.523153 0.46606,1.028745 0.75595,1.511903 0.93489,1.558137 2.12229,2.958045 3.02381,4.535715 1.54489,2.703547 1.74586,4.188556 3.77976,6.80357 0.87514,1.125173 2.07025,1.964291 3.02381,3.023812 1.31657,1.462844 2.53352,3.012519 3.77977,4.535712 2.26785,2.771826 4.53571,5.543651 6.80357,8.315476 1.02172,1.24877 2.15756,2.418527 3.02381,3.779763 1.81502,2.852185 2.66042,6.258492 4.53571,9.071432 1.09168,1.63752 2.65115,2.92341 3.77976,4.53571 2.50292,3.57559 0.49675,3.05155 3.77976,6.80357 2.93437,3.35357 2.93452,0.99999 5.29167,4.53572 0.44201,0.66301 0.34598,1.58457 0.75595,2.26785 0.32062,0.53436 2.36801,2.36801 3.02381,3.02381 0.25199,0.25199 0.59659,0.43722 0.75596,0.75596 0.11268,0.22538 0.24855,0.79737 0,0.75595 -4.58328,-0.76389 -9.0717,-2.01593 -13.60755,-3.0239" />
    <path
       style="fill:#916f6f;stroke:#000000;stroke-width:0.26458332px;stroke-linecap:butt;stroke-linejoin:miter;stroke-opacity:1"
       d="m 31.75,123.13095 c 0.51724,1.57224 1.374019,3.07011 1.546998,4.72039 0.05824,0.55564 -0.03298,1.10986 -0.03509,1.66758 -0.0046,1.22548 0.08723,2.4549 -0.0076,3.67658 -0.04446,0.57303 -0.0953,1.1745 0.182485,1.71334 0.257851,0.50018 0.702507,0.97773 0.614725,1.58755 -0.05921,0.41132 -0.131683,0.84191 0.06691,1.24146 0.260732,0.52456 0.673022,0.9992 0.700115,1.61816 0.05282,1.20659 0.18,2.43743 -0.05598,3.62051 -0.06217,0.3117 0.009,0.62217 0.155286,0.90469 0.294078,0.56804 0.723883,1.1135 0.690783,1.79579 -0.03234,0.66664 -0.2048,1.34252 0.01474,2.00541 0.269067,0.81242 0.709454,1.58732 0.714728,2.4695 0.0046,0.76232 -0.04919,1.52282 -0.05243,2.28583 -0.005,1.18478 0.02758,2.37029 -0.0092,3.55442 -0.02325,0.74927 -0.183884,1.54898 0.126133,2.25934 0.194521,0.44572 0.763711,0.81679 0.658911,1.30439 -0.06722,0.31274 -0.03014,0.59921 0.131243,0.90278 0.118676,0.22324 0.372207,0.73212 0.671883,0.3783 0.259617,-0.30652 0.374522,0.40897 0.4233,0.60102 0.149683,0.58934 0.364239,1.17862 0.308353,1.80042 -0.07518,0.83646 -0.06917,1.67752 -0.0428,2.51584 0.02648,0.84197 -0.104283,1.68311 -0.02871,2.52361 0.0376,0.41819 -0.026,0.84545 0.116751,1.26258 0.359362,1.05007 1.299493,1.82223 1.464579,2.95961 0.180307,1.24225 0.0096,2.49301 -0.04726,3.73762 -0.0217,0.47452 -0.29381,1.08843 0.06783,1.43722 0.300164,0.2895 0.728034,0.4586 0.734952,0.99233 0.0084,0.65056 -0.42875,1.39312 -0.01492,1.96149 0.351076,0.48218 1.485991,0.13603 1.486529,0.71057 7.08e-4,0.75595 -0.265923,1.56023 0,2.26786 0.152752,0.40648 0.0837,1.21574 0.523473,1.19964 0.294471,-0.0108 0.179571,-0.55863 0.303987,-0.78432 0.193424,-0.35087 0.395179,0.30491 0.465506,0.48251 0.171608,0.43338 0.305904,0.88291 0.29239,1.36113 -0.02105,0.74473 -0.317167,1.51346 -0.08542,2.23865 0.212939,0.66633 0.814181,1.18357 0.819486,1.92164 0.0039,0.54133 -0.04909,1.07962 -0.05573,1.62223 -0.0241,1.96864 -0.03769,3.93687 -0.03609,5.90716 7.62e-4,0.93549 0.65324,1.70873 0.780605,2.6093 0.08623,0.60974 -0.0025,1.23009 -0.01225,1.84325 -0.01041,0.65409 -0.229674,1.35519 0.01166,1.9671 0.184192,0.46703 0.633973,0.81386 1.147872,0.82982 0.428144,0.0133 0.889427,0.11696 1.284244,-0.0467 0.242359,-0.10047 0.884033,-0.0679 0.639208,0.28578 -0.204372,0.29521 -0.0294,0.63908 0.370063,0.54299 0.422469,-0.10162 0.860064,-0.0572 1.290708,-0.0575 3.855568,-0.003 7.71145,0.0421 11.566716,-0.006 2.271144,-0.0281 4.559887,-0.0576 6.803465,0.35921 1.83071,0.34015 3.628745,0.84258 5.39905,1.41582 3.005379,0.97316 5.807204,2.44962 8.698694,3.70146 2.819702,1.22076 5.704287,2.28749 8.617409,3.25986 1.843041,0.61519 3.687675,1.22369 5.520243,1.87148 1.270333,0.44905 2.566773,0.85838 3.919879,0.97619 1.11042,0.0967 2.23775,0.20292 3.28091,0.64309 1.09378,0.46153 2.12945,1.05198 3.22621,1.51771 0.23309,0.099 0.54861,0.40751 0.12109,0.56117 -0.25354,0.0911 -1.03847,0.0459 -0.83671,0.12928 0.59881,0.24739 1.24441,0.36347 1.86717,0.53831 1.59459,0.44767 3.2558,0.59224 4.85303,1.02265 1.18278,0.31873 2.36386,0.72183 3.60922,0.70137 1.36395,-0.0224 2.74687,-0.26864 4.09811,0.0565 0.9918,0.23866 1.95997,0.56404 2.96699,0.74752 2.79907,0.50998 5.62136,0.87586 8.43704,1.27941 4.29603,0.61572 8.55611,1.60725 12.91371,1.69373 4.00195,0.0794 8.00594,-0.3271 12.00542,-0.014 1.71494,0.13427 3.41945,0.50317 5.14079,0.47158 0.19616,-0.004 0.52061,0.13331 0.14322,0.18415 -0.39131,0.0527 -1.57536,0.0787 -1.18099,0.0756 4.31512,-0.0338 8.63089,0.0419 12.94567,-0.02 0.43197,-0.006 0.88461,0.11895 1.2964,-0.0103 0.17187,-0.054 0.94598,-0.10741 0.57781,0.12521 -0.30551,0.19303 -0.74246,0.10056 -0.6248,-0.40751 0.36219,-1.56399 1.31957,-2.9355 1.49236,-4.55946 0.24884,-2.33876 -0.038,-4.68444 -0.0383,-7.02775 -9.6e-4,-8.71016 0.14942,-17.42165 -0.001,-26.13049 -0.0284,-1.63654 -0.2326,-3.29169 0.10824,-4.91459 0.37463,-1.7838 1.05583,-3.48 1.55928,-5.22841 0.69939,-2.42891 1.32981,-4.87705 2.01662,-7.31021 0.24657,-0.87352 0.10144,-1.78252 0.0974,-2.67389 -0.007,-1.51998 0.051,-3.04136 -0.013,-4.56 -0.0455,-1.08103 -0.0394,-2.16633 0.13888,-3.23948 0.27024,-1.62632 0.74026,-3.24277 0.63893,-4.91064 -0.0616,-1.0141 -0.18908,-2.05569 0.0847,-3.04496 0.0876,-0.31675 0.0773,-0.90281 0.45379,-0.91203 0.35129,-0.009 0.59634,-0.25808 0.81838,-0.52753 0.25426,-0.30855 0.18781,-0.72277 0.18981,-1.09052 0.01,-1.7502 -0.0441,-3.49963 -0.044,-5.24995 4.7e-4,-7.0617 -0.36354,-14.13282 7.1e-4,-21.18511 0.0458,-0.88731 0.42812,-1.7259 0.43253,-2.61806 0.003,-0.54366 -0.60556,-0.32762 -0.92321,-0.22586 -1.75733,0.56296 -3.13652,1.84784 -4.51742,3.01362 -0.57863,0.48849 -1.16584,0.96953 -1.79639,1.39025"
       id="path23293"
       inkscape:connector-curvature="0"
       inkscape:path-effect="#path-effect23295"
       inkscape:original-d="m 31.75,123.13095 c 0.503967,1.5119 1.125378,2.98961 1.511905,4.53572 0.12223,0.48892 0,1.00793 0,1.5119 0,1.25992 0,2.51984 0,3.77976 0,0.50397 -0.122232,1.02299 0,1.51191 0.136658,0.54663 0.577771,0.97736 0.755952,1.5119 0.159369,0.47811 -0.159369,1.0338 0,1.51191 0.178178,0.53454 0.619294,0.96527 0.755952,1.5119 0.143719,0.57488 0,3.14674 0,3.77976 0,0.25199 -0.07968,0.5169 0,0.75596 0.178181,0.53453 0.577773,0.97736 0.755951,1.5119 0.239054,0.71716 -0.148254,1.52658 0,2.26786 0.156276,0.78137 0.624954,1.48185 0.755955,2.26785 0.124277,0.74567 0,1.51191 0,2.26786 0,1.25992 0,2.51984 0,3.77976 0,0.75595 -0.148254,1.52659 0,2.26786 0.1105,0.55251 0.57777,0.97737 0.755951,1.51191 0.07968,0.23905 -0.112691,0.53056 0,0.75595 1.152663,2.30532 0.599292,-1.3826 1.511906,2.26786 0.12223,0.48892 0,1.00793 0,1.5119 0,0.75595 0,1.5119 0,2.26786 0,0.75595 -0.12428,1.52219 0,2.26785 -0.262559,1.53809 1.24578,2.44914 1.511903,3.77976 0.247092,1.23546 0,2.51985 0,3.77977 0,0.50397 -0.159369,1.0338 0,1.5119 0.112692,0.33807 0.669523,0.41023 0.755952,0.75595 0.183346,0.73338 -0.338071,1.59172 0,2.26786 0.251986,0.50397 1.113483,0.35753 1.511906,0.75595 7.94e-4,8e-4 -0.0011,2.26444 0,2.26786 1.172308,3.51692 0.339598,-2.00502 1.511906,1.5119 0.267761,0.80329 -0.267764,2.22053 0,3.02381 0.178178,0.53454 0.619294,0.96528 0.755951,1.51191 0.12223,0.48892 0,1.00794 0,1.51191 0,1.48459 -0.174257,5.58377 0,6.80357 0.112692,0.78883 0.599678,1.48648 0.755952,2.26785 0.09492,0.47458 -0.187111,3.40554 0,3.77976 0.524647,1.0493 1.345081,0.75596 2.267857,0.75596 0.251984,0 0.577774,-0.17818 0.755952,0 0.178181,0.17818 -0.178178,0.57777 0,0.75595 0.178181,0.17818 0.503968,0 0.755954,0 0.251984,0 0.503968,0 0.755952,0 1.007935,0 2.015874,0 3.023809,0 2.519841,0 5.039683,0 7.559524,0 3.848883,0 5.94831,-0.21382 9.827382,0.75595 6.189255,1.54732 7.701078,2.85976 13.607142,5.29167 1.990788,0.81974 4.020092,1.54374 6.047618,2.26786 1.500844,0.53601 3.023809,1.00793 4.535715,1.5119 1.511903,0.50397 2.989609,1.12538 4.535713,1.5119 1.48699,0.37175 3.11258,0.1867 4.53571,0.75596 9.16224,3.66489 -1.65056,1.28825 5.29167,3.02381 1.24651,0.31162 2.52549,0.47722 3.77976,0.75595 1.01422,0.22538 1.9953,0.60902 3.02381,0.75595 1.49671,0.21382 3.03901,-0.21381 4.53572,0 1.02851,0.14693 2.00502,0.5522 3.02381,0.75596 1.50299,0.30059 3.02077,0.52288 4.53571,0.75595 1.76108,0.27093 3.53059,0.48501 5.29167,0.75595 3.44517,0.53002 7.11627,1.30796 10.58333,1.5119 4.27634,0.25155 8.57695,-0.28495 12.85119,0 14.54652,0.96977 -3.07313,0.75596 9.82738,0.75596 2.51984,0 5.03968,0 7.55953,0 0.50396,0 1.00793,0 1.5119,0 0.25198,0 0.75595,-0.25199 0.75595,0 0,0.25198 -0.79738,0.24855 -0.75595,0 0.262,-1.57201 1.30128,-2.95601 1.51191,-4.53572 0.29972,-2.24796 0,-4.53571 0,-6.80357 0,-8.06349 0,-16.12698 0,-24.19047 0,-0.75596 0,-1.51191 0,-2.26786 0,-1.51191 -0.2299,-3.04139 0,-4.53572 0.27894,-1.81314 1.00793,-3.52777 1.5119,-5.29166 0.10103,-0.35361 2.02768,-6.87443 2.26786,-8.31548 0.12427,-0.74567 0,-1.51191 0,-2.26786 0,-1.25992 0,-2.51984 0,-3.77976 0,-1.00794 -0.1003,-2.02087 0,-3.02381 0.15251,-1.52515 0.61718,-3.00925 0.75595,-4.53571 0.11407,-1.25475 -0.17818,-2.53251 0,-3.77976 0.36504,-2.55532 0.70555,-0.65516 1.5119,-2.26786 0.10229,-0.20456 0,-4.21009 0,-4.53571 0,-3.77977 0,-7.55953 0,-11.33929 0,-3.77976 0,-7.55952 0,-11.33929 0,-1.00793 0.98394,-3.24244 0,-3.02381 -2.66077,0.59123 -4.53585,3.02375 -6.80378,4.53563" />
    <rect
       style="fill:#916f6f;stroke-width:0.26458332"
       id="rect23297"
       width="12.095239"
       height="60.476189"
       x="73.327377"
       y="206.28571" />
    <rect
       style="fill:#916f6f;stroke-width:0.26458332"
       id="rect23302"
       width="12.095239"
       height="48.380955"
       x="108.85714"
       y="221.40477" />
    <rect
       style="fill:#916f6f;stroke-width:0.26458332"
       id="rect23309"
       width="7.5595274"
       height="52.91666"
       x="148.92261"
       y="222.16071" />
    <rect
       style="fill:#916f6f;stroke-width:0.26458332"
       id="rect23311"
       width="8.3154764"
       height="66.523811"
       x="47.625"
       y="202.50595" />
  </g>
</svg>
