
<svg
   xmlns:dc="http://purl.org/dc/elements/1.1/"
   xmlns:cc="http://creativecommons.org/ns#"
   xmlns:rdf="http://www.w3.org/1999/02/22-rdf-syntax-ns#"
   xmlns:svg="http://www.w3.org/2000/svg"
   xmlns="http://www.w3.org/2000/svg"
   xmlns:sodipodi="http://sodipodi.sourceforge.net/DTD/sodipodi-0.dtd"
   xmlns:inkscape="http://www.inkscape.org/namespaces/inkscape"
   width="210mm"
   height="297mm"
   viewBox="0 0 210 297"
   version="1.1"
   id="svg8"
   inkscape:version="0.92.2 (unknown)"
   sodipodi:docname="drawing.svg">
  <defs
     id="defs2">
    <inkscape:path-effect
       effect="simplify"
       id="path-effect23103"
       is_visible="true"
       steps="1"
       threshold="0.000408163"
       smooth_angles="360"
       helper_size="0"
       simplify_individual_paths="false"
       simplify_just_coalesce="false"
       simplifyindividualpaths="false"
       simplifyJustCoalesce="false" />
    <inkscape:path-effect
       effect="simplify"
       id="path-effect23096"
       is_visible="true"
       steps="1"
       threshold="0.000408163"
       smooth_angles="360"
       helper_size="0"
       simplify_individual_paths="false"
       simplify_just_coalesce="false"
       simplifyindividualpaths="false"
       simplifyJustCoalesce="false" />
    <inkscape:path-effect
       effect="simplify"
       id="path-effect23056"
       is_visible="true"
       steps="1"
       threshold="0.000408163"
       smooth_angles="360"
       helper_size="0"
       simplify_individual_paths="false"
       simplify_just_coalesce="false"
       simplifyindividualpaths="false"
       simplifyJustCoalesce="false" />
    <inkscape:path-effect
       effect="simplify"
       id="path-effect23052"
       is_visible="true"
       steps="1"
       threshold="0.000408163"
       smooth_angles="360"
       helper_size="0"
       simplify_individual_paths="false"
       simplify_just_coalesce="false"
       simplifyindividualpaths="false"
       simplifyJustCoalesce="false" />
    <inkscape:path-effect
       effect="simplify"
       id="path-effect23044"
       is_visible="true"
       steps="1"
       threshold="0.000408163"
       smooth_angles="360"
       helper_size="0"
       simplify_individual_paths="false"
       simplify_just_coalesce="false"
       simplifyindividualpaths="false"
       simplifyJustCoalesce="false" />
    <inkscape:path-effect
       effect="simplify"
       id="path-effect23040"
       is_visible="true"
       steps="1"
       threshold="0.000408163"
       smooth_angles="360"
       helper_size="0"
       simplify_individual_paths="false"
       simplify_just_coalesce="false"
       simplifyindividualpaths="false"
       simplifyJustCoalesce="false" />
  </defs>
  <sodipodi:namedview
     id="base"
     pagecolor="#ffffff"
     bordercolor="#666666"
     borderopacity="1.0"
     inkscape:pageopacity="0.0"
     inkscape:pageshadow="2"
     inkscape:zoom="0.35"
     inkscape:cx="400"
     inkscape:cy="445.71429"
     inkscape:document-units="mm"
     inkscape:current-layer="layer2"
     showgrid="false"
     inkscape:window-width="1301"
     inkscape:window-height="744"
     inkscape:window-x="1985"
     inkscape:window-y="300"
     inkscape:window-maximized="1" />
  <metadata
     id="metadata5">
    <rdf:RDF>
      <cc:Work
         rdf:about="">
        <dc:format>image/svg+xml</dc:format>
        <dc:type
           rdf:resource="http://purl.org/dc/dcmitype/StillImage" />
        <dc:title></dc:title>
      </cc:Work>
    </rdf:RDF>
  </metadata>
  <g
     inkscape:label="Layer 1"
     inkscape:groupmode="layer"
     id="layer1">
    <path
       style="fill:none;stroke:#000000;stroke-width:0.26458332px;stroke-linecap:butt;stroke-linejoin:miter;stroke-opacity:1"
       d="m 362.10118,316.65476 c 0,1.7639 0,3.52777 0,5.29166"
       id="path4006"
       inkscape:connector-curvature="0" />
    <path
       style="fill:#280b0b;stroke-width:0.75595242"
       d="M 96.062775,137.77648 C 61.525888,130.52528 41.486978,97.467151 52.475288,65.870297 c 4.7958,-13.790337 16.25698,-26.082143 30.22504,-32.415564 7.06713,-3.204393 12.838097,-4.521232 22.013872,-5.023202 18.195,-0.995376 34.40474,5.418627 46.47626,18.390105 8.69158,9.339545 13.13559,19.005872 14.41264,31.349468 2.70171,26.113846 -13.61507,49.532296 -40.493,58.117026 -4.13532,1.32081 -7.52175,1.74483 -15.49702,1.94039 -5.61295,0.13763 -11.710575,-0.0658 -13.550305,-0.45204 z"
       id="path4042"
       inkscape:connector-curvature="0" />
    <path
       style="fill:#241f1c;stroke:#000000;stroke-width:0.26458332px;stroke-linecap:butt;stroke-linejoin:miter;stroke-opacity:1"
       d="m 96.761905,99.696427 c 0.503967,1.007933 1.007935,2.015873 1.511903,3.023813 0,0.50396 -0.159369,1.0338 0,1.5119 0.786524,2.35957 0.503968,-0.25198 1.511906,0.75595 0.178178,0.17818 -0.178181,0.57778 0,0.75596 0.117313,0.11731 1.973696,-0.0981 2.267856,0 0.53454,0.17818 0.97737,0.57777 1.5119,0.75595 0.47811,0.15937 1.06115,-0.22538 1.51191,0 0.31874,0.15937 0.43721,0.59658 0.75595,0.75595 0.27527,0.13763 3.02381,-0.13254 3.02381,0 0,0.25199 -1.00793,0 -0.75595,0 0.50397,0 1.00793,0 1.5119,0 0.25199,0 0.53057,0.11269 0.75596,0 0.31873,-0.15937 0.50396,-0.50397 0.75595,-0.75595 1.00793,-1.00794 2.01587,-2.01587 3.02381,-3.02381 0.25198,-0.25199 0.43721,-0.59658 0.75595,-0.75595 0.22538,-0.11269 1.00794,0 0.75595,0 -0.50396,0 -1.02298,0.12223 -1.5119,0 -2.1276,-0.5319 -4.29996,-3.89354 -6.04762,-5.29167 -0.70945,-0.56756 -1.51191,-1.007935 -2.26786,-1.511903"
       id="path23018"
       inkscape:connector-curvature="0" />
    <path
       style="fill:#241f1c;stroke:#000000;stroke-width:0.26458332px;stroke-linecap:butt;stroke-linejoin:miter;stroke-opacity:1"
       d="m 96.761905,99.696425 c -0.755955,0.755955 -1.789753,1.311645 -2.267858,2.267855 -0.159369,0.31874 0.558279,0.45945 0.755952,0.75596 0.312547,0.46882 0.503968,1.00793 0.755951,1.5119 0.320768,0.64154 1.920574,4.18843 2.267858,4.53571 0.178181,0.17819 0.503968,0 0.755952,0 0.251986,0 0.50397,0 0.755954,0 1.511906,0 3.023806,0 4.535716,0 0.25198,0 0.57777,0.17819 0.75595,0 0.17818,-0.17817 -0.17818,-0.57777 0,-0.75595 0.17818,-0.17818 0.50397,0 0.75595,0 0.87817,0 3.09446,0.17133 3.77976,0 0.54663,-0.13665 0.97737,-0.57777 1.51191,-0.75595 0.23905,-0.0797 0.57777,0.17818 0.75595,0 0.17818,-0.17818 -0.17818,-0.57777 0,-0.75595 1.56409,-1.56409 -0.0611,2.39014 1.51191,-0.75595 0.11269,-0.22538 -0.17818,-0.57778 0,-0.75596 0.17817,-0.17818 0.75595,-0.25198 0.75595,0 0,0.25199 -0.65061,-0.2289 -0.75595,0 -1.30933,2.84509 -2.19577,5.86635 -3.29365,8.79952"
       id="path23026"
       inkscape:connector-curvature="0" />
    <path
       style="fill:#241f1c;stroke:#000000;stroke-width:0.26458332px;stroke-linecap:butt;stroke-linejoin:miter;stroke-opacity:1"
       d="m 96.761905,99.696425 c 0.619074,2.538205 3.141805,3.433125 4.535715,5.291665 0.55244,0.73659 0.58703,1.80543 1.5119,2.26786 0.45077,0.22538 1.06114,-0.22538 1.51191,0 0.31873,0.15937 0.43721,0.59658 0.75595,0.75595 0.22538,0.11269 0.57777,-0.17818 0.75595,0 0.17818,0.17818 -0.11269,0.53057 0,0.75595 0.15937,0.31874 0.50397,0.50398 0.75595,0.75596 0.25199,0.25198 0.43722,0.59658 0.75596,0.75595 0.45076,0.22538 1.06114,-0.22538 1.5119,0 0.31874,0.15937 0.50397,0.50397 0.75595,0.75595 1.00794,0.25199 2.03817,0.42741 3.02381,0.75596 0.31458,0.10485 1.58471,1.09752 2.26786,0.75595 3.14609,-1.57305 -0.80814,0.0522 0.75595,-1.51191 0.17818,-0.17818 0.57777,0.17818 0.75596,0 0.35635,-0.35636 -0.22539,-1.06114 0,-1.5119 0.31873,-0.63748 1.19316,-0.87443 1.5119,-1.51191 0.11269,-0.22538 -0.11269,-0.53057 0,-0.75595 0.15937,-0.31874 0.59658,-0.43721 0.75595,-0.75595 0.11269,-0.22538 -0.11269,-0.53057 0,-0.75595 0.31874,-0.63748 1.19317,-0.87443 1.51191,-1.51191 0.11269,-0.22538 -0.11269,-0.53057 0,-0.75595 0.15937,-0.31874 0.59658,-0.43722 0.75595,-0.75595 0.11503,-0.23006 0,-1.92741 0,-2.26786"
       id="path23030"
       inkscape:connector-curvature="0" />
    <path
       style="fill:none;stroke:#000000;stroke-width:0.26458332px;stroke-linecap:butt;stroke-linejoin:miter;stroke-opacity:1"
       d="m 96.761905,99.696425 c -0.755955,1.259925 -2.026306,2.330445 -2.267858,3.779765 -0.09263,0.55579 0.988751,0.54669 1.511903,0.75595 7.60962,3.04385 -1.605034,-0.59025 3.779764,0.75595 0.546626,0.13666 0.977366,0.57778 1.511906,0.75596 0.23905,0.0797 0.53057,-0.1127 0.75595,0 0.31874,0.15936 0.43721,0.59658 0.75595,0.75595 0.45077,0.22538 1.06114,-0.22538 1.51191,0 2.30532,1.15266 -1.3826,0.59929 2.26785,1.5119 0.48892,0.12223 1.0338,-0.15937 1.51191,0 0.33807,0.11269 0.45944,0.55828 0.75595,0.75595 0.46882,0.31255 0.97737,0.57778 1.51191,0.75596 0.0973,0.0324 2.20525,0.0313 2.26785,0 0.31874,-0.15937 0.45945,-0.55828 0.75596,-0.75596 0.46882,-0.31254 1.04308,-0.4434 1.5119,-0.75595 0.29651,-0.19767 0.43722,-0.59658 0.75595,-0.75595 0.22538,-0.11269 0.57777,0.17818 0.75596,0 0.17818,-0.17818 -0.17819,-0.57777 0,-0.75595 0.17818,-0.17818 0.57777,0.17818 0.75595,0 0.17818,-0.17818 -0.17818,-0.57777 0,-0.75595 2.95028,-2.95029 0.40598,0.17498 2.26785,-0.75596 1.5289,-0.76445 0.24242,-1.75432 0.75596,-2.26785 0.17818,-0.17818 0.57777,0.17818 0.75595,0 0.17818,-0.17818 0,-0.50397 0,-0.75596 0,-0.50397 0,-1.00793 0,-1.5119 -0.50397,1.51191 -0.79919,3.11028 -1.5119,4.53572 -0.11269,0.22538 -0.5169,0.0797 -0.75596,0 -2.286,-0.762 -0.73781,-0.74991 -3.02381,-1.51191 -0.4265,-0.14217 -1.77111,0 -2.26785,0 -3.02381,0 -6.04762,0 -9.07143,0 -0.34045,0 -2.0378,0.11503 -2.26786,0 -0.63747,-0.31874 -0.91889,-1.11656 -1.5119,-1.5119 -1.222541,-0.81503 -2.519844,-1.51191 -3.779765,-2.267865 z"
       id="path23034"
       inkscape:connector-curvature="0" />
    <path
       style="fill:none;stroke:#000000;stroke-width:0.26458332px;stroke-linecap:butt;stroke-linejoin:miter;stroke-opacity:1"
       d="M 96.761905,99.696425 C 96.523177,98.988439 96.1401,98.34298 95.81047,97.675847 95.549987,97.14866 95.305661,96.599858 95.227827,96.012102 c -0.03933,-0.296989 -0.04076,-0.603563 0.03268,-0.894793 0.02231,-0.08847 0.08558,-0.172874 0.17866,-0.192974 0.128559,-0.02776 0.259727,0.01622 0.376414,0.06658 0.294755,0.127214 0.561869,0.307904 0.834654,0.475126 0.253275,0.155262 0.498798,0.338174 0.784746,0.423596 0.389959,0.116493 0.788672,0.204065 1.184245,0.300011 0.951995,0.230907 1.897088,0.499021 2.862578,0.665562 0.0927,0.016 0.36012,0.09421 0.27916,0.04585 -0.0494,-0.02951 -0.11795,-0.04022 -0.17646,-0.05369 -0.3808,-0.08769 -0.76649,-0.173378 -1.15768,-0.182338 -0.13862,-0.0032 -0.28175,-0.0047 -0.4158,0.04087 -0.06064,0.02063 -0.08699,0.09165 -0.05742,0.149613 0.06185,0.121282 0.172733,0.208688 0.279613,0.287981 0.38885,0.28848 0.81241,0.527339 1.24351,0.74531 0.25399,0.128422 0.50091,0.273045 0.76464,0.38089 0.51177,0.209277 1.06526,0.273809 1.60724,0.358603 0.4765,0.07455 0.95713,0.171939 1.39271,0.387861 0.55049,0.272887 1.01826,0.677012 1.50832,1.041132 0.23674,0.1759 0.4859,0.33429 0.74304,0.47903 0.67448,0.37965 1.35415,0.75268 2.05947,1.07287 0.20281,0.0921 0.4114,0.17023 0.62043,0.24662 0.13017,0.0476 0.23991,0.13548 0.33811,0.23114 0.28167,0.27438 0.5512,0.56088 0.82691,0.84121 0.69791,0.70961 2.30908,3.10618 2.0869,2.13574 -0.008,-0.0355 -0.0685,-0.0995 -0.0256,-0.12747 0.0428,-0.0279 0.0984,-0.007 0.14157,0.009 0.22032,0.0811 0.42223,0.20414 0.62293,0.32409 0.27503,0.16437 0.53651,0.35027 0.80956,0.51766 0.20819,0.12763 0.43787,0.22791 0.61729,0.39594 0.061,0.0571 0.13419,0.13005 0.12247,0.22004 -0.0104,0.0796 -0.0834,0.1283 -0.13589,0.17985 -1.06918,1.05062 -2.30083,1.91465 -3.53612,2.7561 -0.8159,0.55577 -1.63759,1.10402 -2.42764,1.69648"
       id="path23042"
       inkscape:connector-curvature="0"
       inkscape:path-effect="#path-effect23044"
       inkscape:original-d="m 96.761905,99.696425 c -0.503971,-1.511906 -1.824453,-2.972975 -1.511906,-4.535712 0.156273,-0.781371 1.501672,0.537043 2.267857,0.755954 10.265034,2.566257 -2.20396,-1.101982 4.535714,2.267855 0.92927,0.464637 2.06886,0.346688 3.02381,0.755954 0.83508,0.357891 1.47902,1.061144 2.26786,1.511904 4.27149,2.44086 1.84103,0.32913 4.53571,3.02381 3.26972,3.26971 -0.20026,0.11848 3.02381,2.26786 0.29651,0.19767 1.00794,0.50396 0.75595,0.75595 -1.7818,1.78179 -4.03175,3.02381 -6.04762,4.53571" />
    <path
       style="fill:none;stroke:#000000;stroke-width:0.26458332px;stroke-linecap:butt;stroke-linejoin:miter;stroke-opacity:1"
       d="m 96.761905,99.696425 c -0.06178,1.414305 -0.10874,2.834835 0.01347,4.246655 0.05918,0.68367 0.130128,1.37731 0.361529,2.0266 0.113424,0.31826 0.264869,0.64129 0.530341,0.86207 0.190042,0.15805 0.44976,0.21459 0.691536,0.17322 0.365023,-0.0625 0.690159,-0.26031 0.982415,-0.47798 0.586826,-0.43706 1.09691,-0.96584 1.59937,-1.49485 0.70641,-0.74374 1.37146,-1.53037 2.13722,-2.2146 0.34919,-0.31201 0.71377,-0.62255 1.14536,-0.81369 0.24553,-0.10874 0.53601,-0.17175 0.79329,-0.0668 0.21242,0.0867 0.37763,0.25437 0.52613,0.42383 0.26081,0.29762 0.47075,0.64052 0.76327,0.90911 0.0972,0.0892 0.19918,0.18458 0.32645,0.22387 0.14767,0.0456 0.29986,-0.001 0.44652,-0.0259 0.10094,-0.0168 0.20566,-0.0139 0.30387,0.0211 0.5156,0.1837 0.93904,0.5547 1.45571,0.73671 0.27794,0.0979 0.57815,0.0854 0.86684,0.0573 0.24599,-0.024 0.49205,-0.0509 0.73979,-0.0509 1.28021,-2.4e-4 2.56042,-0.002 3.84063,-3.7e-4 0.20577,2.1e-4 0.46573,-0.15229 0.61707,-0.013 0.02,0.0184 -0.0444,0.0455 -0.0602,0.0739 -0.0373,0.067 0.007,0.14346 0.052,0.19409 0.12781,0.14372 0.29348,0.24826 0.46083,0.33888 0.16749,0.0907 0.33315,0.18968 0.51545,0.24834 0.14691,0.0473 0.31526,0.0526 0.45375,-0.0241 0.16415,-0.091 0.27373,-0.24907 0.3858,-0.39422 0.13252,-0.17164 0.27695,-0.35457 0.48365,-0.4331 0.13053,-0.0496 0.26974,-0.009 0.40011,0.0187 0.11706,0.0245 0.24655,0.0413 0.35657,-0.0208 0.18258,-0.10308 0.29389,-0.28759 0.4177,-0.44975 0.0941,-0.12322 0.19619,-0.26247 0.34866,-0.30782 0.11879,-0.0353 0.24122,0.008 0.35668,0.0361 0.1009,0.0249 0.2152,0.0668 0.31231,0.0156 0.11194,-0.059 0.15938,-0.19417 0.15733,-0.31477 -0.003,-0.19608 -0.0761,-0.38139 -0.12973,-0.56755 -0.0449,-0.15604 -0.0993,-0.31987 -0.0682,-0.48298 0.017,-0.0891 0.0618,-0.19058 0.15061,-0.22197 0.10245,-0.0362 0.20976,0.004 0.30885,0.0327 0.10172,0.0291 0.20816,0.0731 0.31519,0.048 0.0853,-0.02 0.13211,-0.10965 0.12755,-0.1939 -0.009,-0.16289 -0.0955,-0.30991 -0.10259,-0.47363 -0.004,-0.0867 0.0616,-0.17048 0.14942,-0.18072 0.12009,-0.014 0.23402,0.0379 0.34742,0.0688 0.0912,0.0249 0.19817,0.0566 0.28401,0.001 0.0799,-0.0515 0.0931,-0.15497 0.0812,-0.24266 -0.0205,-0.15119 -0.0993,-0.29643 -0.0791,-0.45095 0.0129,-0.0989 0.0784,-0.18143 0.14544,-0.25081 0.18106,-0.18744 0.42759,-0.301056 0.58802,-0.51113 0.0638,-0.08352 0.0922,-0.188596 0.0914,-0.292832 -0.002,-0.225393 -0.0752,-0.44155 -0.13375,-0.65691 -0.0407,-0.149787 -0.0901,-0.300389 -0.0921,-0.457206 -9e-4,-0.06908 0.0297,-0.145823 0.10078,-0.170923 0.0609,-0.02151 0.13711,-0.01684 0.18024,0.03757 0.0727,0.09177 0.0916,0.214986 0.0893,0.328377 -0.002,0.113391 -0.0188,0.234923 -0.0893,0.328377 -0.0421,0.05579 -0.12181,0.06073 -0.18107,0.0311 -0.11601,-0.05801 -0.18914,-0.171437 -0.25617,-0.278027 -0.093,-0.147928 -0.16016,-0.311661 -0.26393,-0.452602 -0.0266,-0.03614 -0.0831,-0.0968 -0.1236,-0.05086 -0.043,0.04872 -0.0643,0.112626 -0.0866,0.172625 -0.11634,0.314029 -0.10596,0.656687 -0.0701,0.984506 0.0421,0.384827 0.12463,0.766263 0.12578,1.154763"
       id="path23050"
       inkscape:connector-curvature="0"
       inkscape:path-effect="#path-effect23052"
       inkscape:original-d="m 96.761905,99.696425 c -0.728851,15.754725 5.745735,0.982985 8.315475,2.267855 0.5455,0.27276 0.9664,1.23916 1.5119,1.51191 0.22539,0.11269 0.5169,-0.0797 0.75596,0 0.53454,0.17818 0.97736,0.57777 1.5119,0.75595 0.47811,0.15937 1.00794,0 1.51191,0 1.25992,0 2.51984,0 3.77976,0 1.77284,0 -0.35636,-0.17818 1.5119,0.75595 0.88642,0.44322 0.89723,-0.44861 1.51191,-0.75595 0.22538,-0.11269 0.53057,0.11269 0.75595,0 0.31874,-0.15937 0.43721,-0.59658 0.75595,-0.75595 0.22538,-0.11269 0.57778,0.17818 0.75595,0 0.35636,-0.35636 -0.35636,-1.15555 0,-1.51191 0.17819,-0.17818 0.57778,0.17818 0.75596,0 0.17818,-0.17818 -0.17818,-0.57777 0,-0.75595 0.17818,-0.17818 0.57777,0.17818 0.75595,0 0.17818,-0.17818 -0.11269,-0.53057 0,-0.75595 0.15937,-0.31874 0.59658,-0.43721 0.75595,-0.755953 0.22538,-0.450762 -0.50397,-1.511905 0,-1.511905 0.25199,0 0.25199,0.755954 0,0.755954 -0.35636,0 -0.59658,-1.07469 -0.75595,-0.755954 -0.33807,0.676145 0,1.511905 0,2.267858" />
    <path
       style="fill:none;stroke:#000000;stroke-width:0.26458332px;stroke-linecap:butt;stroke-linejoin:miter;stroke-opacity:1"
       d="m 96.761905,99.696425 c 0.336083,-0.07698 0.700962,-0.08124 1.022323,0.05897 0.316925,0.13828 0.554957,0.403682 0.751142,0.680862 0.279785,0.39529 0.487287,0.84386 0.821892,1.19833 0.131814,0.13964 0.277224,0.28259 0.460655,0.34338 0.13674,0.0453 0.278983,-7e-5 0.414063,-0.0278 0.11216,-0.023 0.23412,-0.0286 0.33919,0.0296 0.23059,0.12767 0.39148,0.34303 0.55227,0.54504 0.12399,0.15578 0.2703,0.2912 0.40637,0.43604 0.51995,0.55344 1.01413,1.13276 1.57161,1.6496 0.17861,0.16559 0.36922,0.31839 0.57465,0.45002 0.44334,0.28406 0.90549,0.56589 1.41828,0.68865 0.13333,0.0319 0.26734,-0.0162 0.39664,-0.045 0.10316,-0.0229 0.22065,-0.0442 0.31625,0.0177 0.0731,0.0473 0.0847,0.14147 0.0724,0.22158 -0.0221,0.14379 -0.091,0.2773 -0.0977,0.42436 -0.004,0.0911 0.0677,0.17397 0.15715,0.18701 0.12968,0.0189 0.25451,-0.0323 0.37846,-0.0619 0.099,-0.0236 0.2069,-0.0283 0.3013,0.0225 0.26908,0.14481 0.46431,0.3885 0.64419,0.62902 0.19927,0.26645 0.37991,0.56055 0.65545,0.75439 0.077,0.0542 0.15476,0.11723 0.24804,0.13649 0.15359,0.0317 0.30424,-0.0273 0.45469,-0.0498 0.0908,-0.0136 0.18485,-0.001 0.26761,0.0428 0.33942,0.18112 0.60052,0.47372 0.83717,0.77069 0.3135,0.39341 0.58505,0.82545 0.95772,1.16743 0.1388,0.12737 0.28439,0.2601 0.46275,0.32283 0.11671,0.041 0.24008,-4.1e-4 0.35467,-0.0288 0.10203,-0.0253 0.21194,-0.0614 0.31547,-0.0234 0.0777,0.0285 0.11992,0.11177 0.11554,0.19282 -0.009,0.16289 -0.0952,0.30993 -0.10259,0.47363 -0.004,0.0891 0.0636,0.16477 0.14486,0.19173 0.13069,0.0434 0.26906,0.009 0.3984,-0.0208 0.10485,-0.0239 0.21159,-0.0387 0.31965,-0.0387 0.48544,0 1.94176,0 1.45632,0 -0.50397,0 -2.01588,6e-5 -1.51191,0 1.01193,-1.2e-4 2.0256,0.059 3.0358,-1.8e-4 0.20094,-0.0118 0.38908,-0.0996 0.58995,-0.11156 0.0556,-0.003 0.12555,0.009 0.1483,0.0702 0.0206,0.055 -0.0112,0.11354 -0.0607,0.14023 -0.11193,0.0604 -0.24431,0.0707 -0.36849,0.063 -0.10492,-0.006 -0.21257,-0.021 -0.30913,-0.0679 -0.0604,-0.0294 -0.0198,-0.087 0.0164,-0.12146 0.27443,-0.26159 0.62422,-0.42522 0.97632,-0.55425 0.17524,-0.0642 0.34765,-0.14092 0.52997,-0.18055 0.13626,-0.0296 0.27187,0.0203 0.40367,0.0493 0.10249,0.0225 0.23146,0.0525 0.31242,-0.0274 0.13279,-0.13089 0.2685,-0.26655 0.35462,-0.4335 0.0358,-0.0694 0.0724,-0.16495 0.0191,-0.23336 -0.0565,-0.0725 -0.15531,-0.0885 -0.24096,-0.0978 -0.1786,-0.0192 -0.36056,-0.033 -0.5368,-0.002 -0.0445,0.008 -0.10518,-0.0269 -0.0566,-0.0727 0.0954,-0.0899 0.21271,-0.15263 0.32637,-0.21588 0.30482,-0.16961 0.59986,-0.3662 0.92884,-0.48188 0.11671,-0.041 0.24008,4.2e-4 0.35467,0.0288 0.10204,0.0253 0.21353,0.0654 0.31547,0.0234 0.1042,-0.043 0.14637,-0.16376 0.14346,-0.26985 -0.005,-0.19272 -0.0756,-0.37576 -0.0794,-0.56983 -0.0123,-0.63475 -0.0395,-1.26916 -0.0502,-1.90395 -0.008,-0.50138 -0.0371,-1.00443 0.003,-1.5045 0.009,-0.10817 -0.004,-0.22497 0.0439,-0.32346 0.0874,-0.18039 0.25982,-0.29486 0.41605,-0.41052 0.13587,-0.10059 0.29603,-0.20253 0.34976,-0.36748 0.0393,-0.12062 0.0378,-0.24985 0.0359,-0.37519 -0.008,-0.51905 -0.0955,-1.03492 -0.0876,-1.5539 0.002,-0.0995 -0.0271,-0.21417 0.0289,-0.2981 0.0459,-0.0687 0.1144,-0.12176 0.18056,-0.17048 0.0995,-0.0733 0.22191,-0.14779 0.35013,-0.12248 0.12197,0.0241 0.19157,0.14176 0.23504,0.24938 0.0145,0.0358 0.0354,0.14432 0.0333,0.12265 -0.0264,-0.28583 -0.0251,-0.57379 -0.0271,-0.86054"
       id="path23054"
       inkscape:connector-curvature="0"
       inkscape:path-effect="#path-effect23056"
       inkscape:original-d="m 96.761905,99.696425 c 1.87222,-0.419095 1.896901,1.704405 3.023809,2.267855 0.225376,0.1127 0.530566,-0.11269 0.755956,0 0.31873,0.15937 0.50396,0.50397 0.75595,0.75596 0.59046,0.59046 1.61554,1.83298 2.26785,2.26785 0.46883,0.31255 0.97737,0.57778 1.51191,0.75596 0.23905,0.0797 0.57777,-0.17818 0.75595,0 0.17818,0.17818 -0.17818,0.57777 0,0.75595 0.17818,0.17818 0.53057,-0.11269 0.75595,0 0.63748,0.31874 0.87443,1.19316 1.51191,1.5119 0.22538,0.11269 0.53057,-0.11269 0.75595,0 0.90714,0.45358 1.36072,1.81429 2.26786,2.26786 0.22538,0.11269 0.57777,-0.17818 0.75595,0 0.17818,0.17818 -0.17818,0.57777 0,0.75595 0.17818,0.17818 0.50397,0 0.75595,0 0.25199,0 0.50397,0 0.75596,0 0.25198,0 1.00793,0 0.75595,0 -0.50397,0 -2.01588,0 -1.51191,0 1.00794,0 2.01588,0 3.02381,0 0.25199,0 0.75596,-0.25198 0.75596,0 0,0.25199 -0.93414,0.17818 -0.75596,0 0.39842,-0.39842 0.97737,-0.57777 1.51191,-0.75595 0.23905,-0.0797 0.57777,0.17818 0.75595,0 1.56409,-1.56409 -2.39014,0.0611 0.75595,-1.51191 0.22538,-0.11268 0.57778,0.17819 0.75595,0 0.17819,-0.17817 0,-0.50396 0,-0.75595 0,-0.52579 -0.13668,-3.50638 0,-3.77976 0.15937,-0.31874 0.59659,-0.43721 0.75596,-0.75595 0.14986,-0.29973 -0.15455,-2.11331 0,-2.26786 1.00793,-1.00793 0.75595,1.25992 0.75595,-0.75595" />
  </g>
  <g
     inkscape:groupmode="layer"
     id="layer5"
     inkscape:label="mouth">
    <path
       style="fill:#241f1c;stroke:#000000;stroke-width:0.26458332px;stroke-linecap:butt;stroke-linejoin:miter;stroke-opacity:1"
       d="m 102.05393,101.20836 c 0.50395,1.00794 0.38502,3.03409 1.51188,3.02381 0.19296,-0.002 0.376,-0.0865 0.5698,-0.0781 0.0777,0.003 0.15037,0.0402 0.20459,0.0969 0.18815,0.19698 0.29555,0.45278 0.3894,0.70439 0.10337,0.27712 0.19536,0.56333 0.3627,0.81054 0.16736,0.24724 0.31734,0.50846 0.51183,0.73524 0.0398,0.0464 0.0717,0.1127 0.13216,0.12891 0.0539,0.0145 0.0682,-0.0568 0.0816,-0.0937 0.0281,-0.0773 0.0811,-0.15239 0.16272,-0.17828 0.11502,-0.0365 0.23921,-0.008 0.34907,0.0311 0.10939,0.0389 0.22039,0.0797 0.31745,0.1438 0.17239,0.11388 0.28023,0.29506 0.40323,0.45575 0.098,0.12801 0.21838,0.25007 0.37604,0.30013 0.17917,0.0569 0.37046,0.0276 0.55093,-0.007 0.21335,-0.041 0.42728,-0.10243 0.64681,-0.0881 0.13607,0.009 0.26706,0.0649 0.3696,0.15524 0.20263,0.17859 0.31217,0.44105 0.52836,0.60644 0.13755,0.10523 0.31629,0.13599 0.48593,0.1282 0.30406,-0.014 0.59786,-0.12087 0.90415,-0.11011 0.0948,0.003 0.18639,0.0295 0.27599,0.0594 0.38651,0.12887 0.78086,0.25491 1.12548,0.47747 0.12075,0.078 0.24429,0.1589 0.33526,0.27048 0.0544,0.0668 0.0421,0.1598 0.0245,0.23789 -0.028,0.1244 -0.0846,0.24352 -0.0875,0.3729 -0.001,0.0645 0.0332,0.12496 0.0865,0.16163 0.0919,0.0633 0.21052,0.0547 0.31521,0.0375 0.16006,-0.0264 0.31839,-0.0755 0.48317,-0.0637 0.18379,0.0132 0.36733,0.068 0.55224,0.0377 0.15611,-0.0256 0.2801,-0.13755 0.37856,-0.25473 0.1398,-0.16638 0.24849,-0.36269 0.4256,-0.49521 0.0868,-0.0649 0.19467,-0.0952 0.30243,-0.0968 0.17872,-0.003 0.40517,0.17611 0.5315,0.0499 0.21642,-0.21615 0.36716,-0.49905 0.6222,-0.67366 0.0711,-0.0486 0.14607,-0.10414 0.23555,-0.10833 0.17309,-0.008 0.33179,0.0841 0.50405,0.0853 0.0641,4.2e-4 0.12355,-0.0308 0.16819,-0.0774 0.12568,-0.13109 0.25757,-0.26453 0.33443,-0.43133 0.03,-0.0651 0.0501,-0.15399 -0.004,-0.21174 -0.0615,-0.0661 -0.15726,-0.0804 -0.2425,-0.0888 -0.17559,-0.0175 -0.35231,-0.0162 -0.52753,-7.1e-4 -0.0369,0.003 -0.10603,-0.0196 -0.0635,-0.0649 0.067,-0.0713 0.15397,-0.12025 0.23779,-0.16877 0.33206,-0.1922 0.66142,-0.39586 1.01888,-0.53474 0.10404,-0.0404 0.21721,-0.009 0.32093,0.0163 0.1037,0.0254 0.21046,0.0642 0.31853,0.0446 0.0785,-0.0142 0.14425,-0.082 0.15036,-0.16293 0.009,-0.11399 -0.0387,-0.22173 -0.0684,-0.32951 -0.0235,-0.0855 -0.059,-0.18373 -0.0164,-0.26663 0.0386,-0.0751 0.10976,-0.12725 0.17225,-0.18141 0.10867,-0.0942 0.22208,-0.19142 0.36012,-0.23961 0.0614,-0.0214 0.13934,-0.015 0.18153,0.0398 0.0612,0.0795 0.0694,0.1849 0.0751,0.28137 0.009,0.15879 0.0161,0.31859 -0.003,0.47637 -0.005,0.0398 0.0243,0.0981 0.0682,0.0543 0.0763,-0.076 0.12948,-0.17171 0.1824,-0.26442 0.18448,-0.32322 0.39697,-0.63718 0.51712,-0.98926 0.0323,-0.0947 0.007,-0.19643 -0.0157,-0.29033 -0.0272,-0.11388 -0.0669,-0.22502 -0.082,-0.34197 -0.006,-0.0477 0.0204,-0.0945 0.0739,-0.10646 0.0433,-0.01 0.0831,0.0229 0.0914,0.0655 0.0183,0.0946 -0.004,0.19113 -0.0242,0.28369 -0.0275,0.12908 -0.046,0.26139 -0.0936,0.38455 -0.015,0.0389 0.0136,0.051 0.0431,0.0213 0.25238,-0.25405 0.48952,-0.53544 0.62752,-0.86999 0.1042,-0.25261 0.13093,-0.5286 0.13281,-0.79953 0.001,-0.20757 0.0111,-0.41576 -0.005,-0.62268 -0.0152,-0.19432 -0.1005,-0.37672 -0.11078,-0.57144 -0.003,-0.0549 0.003,-0.12683 0.0613,-0.1513 0.0404,-0.017 0.0944,-0.0112 0.11923,0.029 0.0444,0.0718 0.0457,0.16085 0.0426,0.24234 -0.006,0.15688 -0.046,0.30981 -0.0762,0.46392 -0.004,0.0185 -0.0343,0.0782 -0.0347,0.0318 -0.002,-0.18289 -7.2e-4,-0.36586 -7.2e-4,-0.54878 0,-0.57969 0,-1.15939 0,-1.73908"
       id="path23094"
       inkscape:connector-curvature="0"
       inkscape:path-effect="#path-effect23096"
       inkscape:original-d="m 102.05393,101.20836 c 0.50395,1.00794 1.00793,2.01588 1.51188,3.02381 0.25199,0 0.5778,-0.17818 0.75597,0 0.39841,0.39842 0.44339,1.04309 0.75594,1.51191 1.2536,1.88038 0.1737,0.0868 1.51191,0.75595 0.31874,0.15937 0.43722,0.59658 0.75597,0.75595 0.45074,0.22538 1.06113,-0.22538 1.51188,0 0.31874,0.15937 0.43722,0.59659 0.75597,0.75595 0.45077,0.22539 1.0338,-0.15936 1.5119,0 0.53454,0.17819 1.11348,0.35754 1.51191,0.75596 0.17817,0.17818 -0.17819,0.57777 0,0.75595 0.17817,0.17818 0.50395,0 0.75594,0 0.25199,0 0.53057,0.11269 0.75594,0 0.31875,-0.15937 0.43723,-0.59658 0.75597,-0.75595 0.22537,-0.11269 0.50395,0 0.75594,0 0.25199,-0.25199 0.43723,-0.59659 0.75597,-0.75596 0.22537,-0.11269 0.57777,0.17819 0.75594,0 1.56409,-1.56409 -2.39014,0.0611 0.75597,-1.5119 0.22537,-0.11269 0.57777,0.17818 0.75594,0 0.17817,-0.17818 -0.17817,-0.57777 0,-0.75595 1.56408,-1.5641 -0.0611,2.39014 1.51191,-0.75595 0.11268,-0.22538 -0.25199,-0.75596 0,-0.75596 0.25199,0 -0.17817,0.93414 0,0.75596 0.86863,-0.86865 0.75594,-1.33693 0.75594,-2.26786 0,-0.25199 -0.25199,-0.75595 0,-0.75595 0.25199,0 0,1.00793 0,0.75595 0,-0.75595 0,-1.51191 0,-2.26786" />
  </g>
  <g
     inkscape:groupmode="layer"
     id="layer2"
     inkscape:label="Layer 2">
    <path
       style="fill:#ffccaa;stroke-width:0.26458332"
       id="path4032"
       sodipodi:type="arc"
       sodipodi:cx="108.89472"
       sodipodi:cy="83.682602"
       sodipodi:rx="29.860117"
       sodipodi:ry="30.994047"
       sodipodi:start="0"
       sodipodi:end="6.1161573"
       sodipodi:open="true"
       d="M 138.75484,83.682602 A 29.860117,30.994047 0 0 1 110.14123,114.64963 29.860117,30.994047 0 0 1 79.138676,86.268031 29.860117,30.994047 0 0 1 105.16389,52.931429 29.860117,30.994047 0 0 1 138.33928,78.529765" />
    <path
       sodipodi:type="star"
       style="fill:#ff0000;stroke-width:0.26458332"
       id="path22993"
       sodipodi:sides="3"
       sodipodi:cx="111.18184"
       sodipodi:cy="223.95505"
       sodipodi:r1="110.17276"
       sodipodi:r2="55.086376"
       sodipodi:arg1="0.51377196"
       sodipodi:arg2="1.5609695"
       inkscape:flatsided="false"
       inkscape:rounded="0"
       inkscape:randomized="0"
       d="m 207.13096,278.10118 -95.40781,0.93758 -95.407798,0.93759 46.891931,-83.09437 46.891927,-83.09437 48.51587,82.15679 z"
       inkscape:transform-center-x="-0.54131362"
       inkscape:transform-center-y="-27.073069" />
    <path
       style="fill:#241f1c;stroke:#000000;stroke-width:0.26458332px;stroke-linecap:butt;stroke-linejoin:miter;stroke-opacity:1"
       d="m 92.9822,99.69648 c 1.007938,0.251979 2.288351,0.0221 3.02381,0.75595 0.224051,0.22356 0.383943,0.51202 0.649074,0.69274 0.07245,0.0494 0.153354,0.0929 0.245063,0.0898 0.167154,-0.006 0.321541,-0.0927 0.490154,-0.0844 0.09318,0.005 0.176191,0.0829 0.178515,0.17849 0.0043,0.17807 -0.104795,0.33654 -0.101792,0.51464 0.0014,0.0811 0.04892,0.12931 0.05426,0.21748 0.01438,0.23723 0.04175,0.48472 0.16223,0.69498 0.07294,0.1273 0.206747,0.21631 0.353664,0.23023 0.217832,0.0206 0.429319,-0.056 0.630848,-0.1287 0.241639,-0.0872 0.477689,-0.20044 0.733883,-0.23847 0.133707,-0.0199 0.284041,9.6e-4 0.383857,0.10109 0.07338,0.0736 0.05201,0.18608 0.0296,0.27713 -0.03088,0.12549 -0.09333,0.24873 -0.07805,0.38077 0.01158,0.10007 0.114294,0.15967 0.210043,0.15737 0.179346,-0.004 0.349096,-0.12215 0.527876,-0.0811 0.0891,0.0204 0.16678,0.0733 0.24147,0.1236 0.3495,0.23526 0.61077,0.57316 0.86318,0.90472 0.2781,0.36531 0.5383,0.75532 0.89955,1.04457 0.11174,0.0895 0.22455,0.19049 0.36264,0.23002 0.13288,0.038 0.26708,-0.0148 0.39553,-0.0462 0.10074,-0.0246 0.21968,-0.0497 0.31072,0.0175 0.0788,0.0582 0.0742,0.16635 0.0563,0.2531 -0.0282,0.13653 -0.097,0.26662 -0.0891,0.40896 0.006,0.10024 0.10375,0.16819 0.20005,0.16847 0.18368,5.3e-4 0.35673,-0.12293 0.53935,-0.081 0.0891,0.0204 0.16678,0.0733 0.24147,0.1236 0.3495,0.23526 0.61077,0.57315 0.86318,0.90472 0.2781,0.36532 0.53765,0.75614 0.89955,1.04457 0.12388,0.0987 0.25384,0.19885 0.40547,0.24787 0.21434,0.0693 0.44181,0.0179 0.65576,-0.0259 0.21959,-0.0449 0.44904,-0.10261 0.6724,-0.0464 0.1796,0.0452 0.31045,0.18694 0.41937,0.32876 0.12757,0.1661 0.23497,0.36885 0.4302,0.46061 0.0492,0.0231 0.10655,0.0183 0.15983,0.02 0.61744,0.0201 1.23537,0.0219 1.85307,0.0193 0.55422,-0.002 1.11056,0.0293 1.66261,-0.0204 0.0528,-0.005 0.10686,-0.004 0.15595,-0.0305 0.27582,-0.15121 0.47318,-0.4049 0.65749,-0.65287 0.19961,-0.26855 0.39091,-0.555 0.66828,-0.7507 0.11305,-0.0798 0.24218,-0.14185 0.38258,-0.15134 0.35095,-0.0237 0.68258,0.13816 1.03361,0.12546 0.12658,-0.005 0.24319,-0.0586 0.3514,-0.12121 0.22304,-0.12912 0.40046,-0.32294 0.54313,-0.53538 0.1602,-0.23855 0.30203,-0.49588 0.5204,-0.68819 0.11196,-0.0986 0.2308,-0.20244 0.37443,-0.24356 0.13287,-0.038 0.26707,0.0148 0.39552,0.0462 0.10075,0.0246 0.21967,0.0497 0.31072,-0.0175 0.0788,-0.0582 0.0743,-0.16635 0.0563,-0.2531 -0.0282,-0.13653 -0.0963,-0.26658 -0.0891,-0.40896 0.005,-0.0923 0.091,-0.1612 0.1822,-0.16062 0.17735,0.001 0.33593,0.11126 0.51443,0.1013 0.10023,-0.006 0.16819,-0.10374 0.16847,-0.20004 5.3e-4,-0.18368 -0.12248,-0.35663 -0.081,-0.53935 0.0244,-0.10749 0.10035,-0.19486 0.17856,-0.26853 0.1808,-0.1703 0.41123,-0.28566 0.56162,-0.48952 0.057,-0.0772 0.0755,-0.17462 0.0674,-0.26995 -0.0141,-0.16528 -0.10345,-0.33277 -0.0504,-0.49619 0.048,-0.14783 0.16891,-0.25632 0.28774,-0.34943 0.16747,-0.13122 0.36183,-0.2432 0.47302,-0.43142 0.0953,-0.16139 0.0744,-0.35781 0.0386,-0.53379 -0.0472,-0.23182 -0.13729,-0.45664 -0.14146,-0.69576 -0.002,-0.12509 0.0493,-0.24795 0.14203,-0.3347 0.11385,-0.10654 0.2413,-0.21644 0.39956,-0.2459 0.10089,-0.0188 0.20139,0.0356 0.25918,0.11833 0.0539,0.0771 0.11034,0.35332 0.1015,0.26023 -0.0273,-0.28744 -0.0255,-0.57717 -0.0277,-0.86558"
       id="path23101"
       inkscape:connector-curvature="0"
       inkscape:path-effect="#path-effect23103"
       inkscape:original-d="m 92.9822,99.69648 c 1.00794,0.25198 2.01588,0.50397 3.02381,0.75595 0.25199,0.25198 0.43722,0.59658 0.75595,0.75595 0.22538,0.11269 0.57778,-0.17818 0.75596,0 0.17818,0.17818 -0.17818,0.57778 0,0.75596 0.0469,2.12856 1.7044,0.19249 2.26785,0.75595 0.17818,0.17818 -0.17818,0.57777 0,0.75595 0.17818,0.17818 0.53058,-0.11269 0.75596,0 0.90714,0.45357 1.36071,1.81428 2.26785,2.26786 0.22539,0.11269 0.57778,-0.17818 0.75595,0 0.17819,0.17818 -0.17817,0.57777 0,0.75595 0.17819,0.17818 0.53058,-0.11269 0.75596,0 0.90714,0.45357 1.36071,1.81429 2.26785,2.26786 0.45077,0.22538 1.06115,-0.22538 1.51191,0 0.31874,0.15937 0.43722,0.59658 0.75595,0.75595 0.0844,0.0422 3.69539,0.0422 3.77976,0 0.63748,-0.31874 0.87443,-1.19317 1.51191,-1.51191 0.45076,-0.22538 1.06114,0.22538 1.5119,0 0.79687,-0.39843 0.71505,-1.11347 1.51191,-1.5119 0.22538,-0.11269 0.57777,0.17818 0.75595,0 0.17818,-0.17818 -0.17818,-0.57777 0,-0.75595 0.17818,-0.17818 0.57777,0.17818 0.75595,0 0.17818,-0.17818 -0.11269,-0.53057 0,-0.75595 0.15937,-0.31874 0.59659,-0.43722 0.75595,-0.75596 0.1127,-0.22538 -0.11268,-0.53057 0,-0.75595 0.15937,-0.31874 0.59659,-0.43721 0.75596,-0.75595 0.22538,-0.45076 -0.35636,-1.15555 0,-1.51191 1.00793,-1.00793 0.75595,1.25992 0.75595,-0.75595" />
  </g>
  <g
     inkscape:groupmode="layer"
     id="layer3"
     inkscape:label="eyes">
    <path
       style="fill:#241f1c;stroke-width:0.26458332"
       id="path22997"
       sodipodi:type="arc"
       sodipodi:cx="92.982162"
       sodipodi:cy="81.175591"
       sodipodi:rx="10.583334"
       sodipodi:ry="9.4494047"
       sodipodi:start="0"
       sodipodi:end="6.1161573"
       sodipodi:open="true"
       d="M 103.5655,81.175591 A 10.583334,9.4494047 0 0 1 93.423962,90.616758 10.583334,9.4494047 0 0 1 82.435714,81.963831 10.583334,9.4494047 0 0 1 91.659842,71.800233 10.583334,9.4494047 0 0 1 103.41821,79.604604"
       inkscape:transform-center-x="-10.58334"
       inkscape:transform-center-y="3.0238095" />
    <path
       d="m 136.22923,80.100754 a 10.205355,9.4494009 0 0 1 -9.77933,9.441164 10.205355,9.4494009 0 0 1 -10.59581,-8.652924 10.205355,9.4494009 0 0 1 8.8947,-10.163594 10.205355,9.4494009 0 0 1 11.33842,7.804368"
       sodipodi:open="true"
       sodipodi:end="6.1161573"
       sodipodi:start="0"
       sodipodi:ry="9.4494009"
       sodipodi:rx="10.205355"
       sodipodi:cy="80.100754"
       sodipodi:cx="126.02388"
       sodipodi:type="arc"
       id="path23012"
       style="fill:#241f1c;stroke-width:0.26458332" />
  </g>
</svg>
